<svg xmlns="http://www.w3.org/2000/svg" xmlns:xlink="http://www.w3.org/1999/xlink" width="1232" height="1354" viewBox="0 0 1232 1354">
<rect x="0" y="0" width="1232" height="1354" fill="white"/>
<g fill="black">
<circle cx="263.462" cy="292.660" r="4.059"/>
<circle cx="258.286" cy="311.979" r="4.687"/>
<circle cx="253.109" cy="331.297" r="4.120"/>
<circle cx="242.756" cy="369.934" r="4.120"/>
<circle cx="282.780" cy="297.837" r="4.687"/>
<circle cx="277.604" cy="317.155" r="7.837"/>
<circle cx="272.428" cy="336.474" r="7.932"/>
<circle cx="267.251" cy="355.792" r="6.629"/>
<circle cx="262.075" cy="375.111" r="4.793"/>
<circle cx="256.899" cy="394.429" r="4.413"/>
<circle cx="3.256" cy="1341.037" r="4.356"/>
<circle cx="302.099" cy="303.013" r="4.740"/>
<circle cx="296.923" cy="322.332" r="7.932"/>
<circle cx="291.746" cy="341.650" r="10.361"/>
<circle cx="286.570" cy="360.969" r="10.166"/>
<circle cx="281.393" cy="380.287" r="7.578"/>
<circle cx="276.217" cy="399.606" r="8.567"/>
<circle cx="271.041" cy="418.924" r="7.343"/>
<circle cx="265.864" cy="438.243" r="4.525"/>
<circle cx="260.688" cy="457.561" r="4.240"/>
<circle cx="250.335" cy="496.198" r="4.356"/>
<circle cx="245.159" cy="515.517" r="4.525"/>
<circle cx="183.042" cy="747.339" r="4.059"/>
<circle cx="32.927" cy="1307.576" r="5.912"/>
<circle cx="22.574" cy="1346.213" r="5.473"/>
<circle cx="316.241" cy="327.508" r="6.079"/>
<circle cx="311.065" cy="346.827" r="10.117"/>
<circle cx="305.888" cy="366.145" r="10.457"/>
<circle cx="300.712" cy="385.464" r="9.348"/>
<circle cx="295.536" cy="404.782" r="8.994"/>
<circle cx="290.359" cy="424.101" r="9.817"/>
<circle cx="285.183" cy="443.419" r="7.309"/>
<circle cx="280.006" cy="462.738" r="6.201"/>
<circle cx="274.830" cy="482.056" r="5.144"/>
<circle cx="269.654" cy="501.375" r="5.193"/>
<circle cx="264.477" cy="520.693" r="5.741"/>
<circle cx="259.301" cy="540.012" r="6.160"/>
<circle cx="254.125" cy="559.330" r="5.954"/>
<circle cx="248.948" cy="578.649" r="4.997"/>
<circle cx="243.772" cy="597.967" r="4.240"/>
<circle cx="202.361" cy="752.515" r="4.059"/>
<circle cx="52.246" cy="1312.752" r="4.687"/>
<circle cx="41.893" cy="1351.389" r="5.784"/>
<circle cx="345.912" cy="294.047" r="4.180"/>
<circle cx="340.736" cy="313.366" r="4.356"/>
<circle cx="335.560" cy="332.684" r="4.740"/>
<circle cx="330.383" cy="352.003" r="8.088"/>
<circle cx="325.207" cy="371.321" r="9.689"/>
<circle cx="320.031" cy="390.640" r="7.900"/>
<circle cx="314.854" cy="409.958" r="5.741"/>
<circle cx="309.678" cy="429.277" r="9.533"/>
<circle cx="304.501" cy="448.596" r="9.663"/>
<circle cx="299.325" cy="467.914" r="9.454"/>
<circle cx="294.149" cy="487.233" r="8.180"/>
<circle cx="288.972" cy="506.551" r="7.963"/>
<circle cx="283.796" cy="525.870" r="7.578"/>
<circle cx="278.619" cy="545.188" r="7.708"/>
<circle cx="273.443" cy="564.507" r="7.900"/>
<circle cx="268.267" cy="583.825" r="7.578"/>
<circle cx="263.090" cy="603.144" r="6.591"/>
<circle cx="257.914" cy="622.462" r="6.281"/>
<circle cx="252.738" cy="641.781" r="4.740"/>
<circle cx="247.561" cy="661.099" r="4.059"/>
<circle cx="242.385" cy="680.418" r="4.180"/>
<circle cx="232.032" cy="719.055" r="4.059"/>
<circle cx="226.856" cy="738.373" r="4.059"/>
<circle cx="370.407" cy="279.905" r="4.240"/>
<circle cx="365.231" cy="299.224" r="4.740"/>
<circle cx="360.055" cy="318.542" r="5.240"/>
<circle cx="354.878" cy="337.861" r="5.095"/>
<circle cx="349.702" cy="357.179" r="4.844"/>
<circle cx="344.525" cy="376.498" r="6.629"/>
<circle cx="339.349" cy="395.816" r="6.241"/>
<circle cx="334.173" cy="415.135" r="4.469"/>
<circle cx="328.996" cy="434.453" r="8.994"/>
<circle cx="323.820" cy="453.772" r="10.313"/>
<circle cx="318.644" cy="473.090" r="9.918"/>
<circle cx="313.467" cy="492.409" r="10.166"/>
<circle cx="308.291" cy="511.727" r="9.637"/>
<circle cx="303.114" cy="531.046" r="8.994"/>
<circle cx="297.938" cy="550.364" r="7.708"/>
<circle cx="292.762" cy="569.683" r="6.553"/>
<circle cx="287.585" cy="589.002" r="6.923"/>
<circle cx="282.409" cy="608.320" r="8.088"/>
<circle cx="277.232" cy="627.639" r="8.180"/>
<circle cx="272.056" cy="646.957" r="8.361"/>
<circle cx="266.880" cy="666.276" r="6.119"/>
<circle cx="261.703" cy="685.594" r="4.997"/>
<circle cx="256.527" cy="704.913" r="6.079"/>
<circle cx="251.351" cy="724.231" r="5.741"/>
<circle cx="246.174" cy="743.550" r="4.059"/>
<circle cx="85.706" cy="1342.424" r="4.844"/>
<circle cx="384.549" cy="304.400" r="4.896"/>
<circle cx="379.373" cy="323.719" r="5.381"/>
<circle cx="374.197" cy="343.037" r="4.525"/>
<circle cx="369.020" cy="362.356" r="4.793"/>
<circle cx="363.844" cy="381.674" r="5.095"/>
<circle cx="358.668" cy="400.993" r="5.784"/>
<circle cx="353.491" cy="420.311" r="6.923"/>
<circle cx="348.315" cy="439.630" r="7.994"/>
<circle cx="343.138" cy="458.948" r="10.289"/>
<circle cx="337.962" cy="478.267" r="8.509"/>
<circle cx="332.786" cy="497.585" r="8.088"/>
<circle cx="327.609" cy="516.904" r="10.552"/>
<circle cx="322.433" cy="536.222" r="10.166"/>
<circle cx="317.256" cy="555.541" r="8.361"/>
<circle cx="312.080" cy="574.859" r="7.994"/>
<circle cx="306.904" cy="594.178" r="8.994"/>
<circle cx="301.727" cy="613.496" r="9.663"/>
<circle cx="296.551" cy="632.815" r="9.817"/>
<circle cx="291.375" cy="652.133" r="9.213"/>
<circle cx="286.198" cy="671.452" r="9.689"/>
<circle cx="281.022" cy="690.770" r="7.377"/>
<circle cx="275.845" cy="710.089" r="4.579"/>
<circle cx="270.669" cy="729.408" r="6.923"/>
<circle cx="265.493" cy="748.726" r="4.579"/>
<circle cx="260.316" cy="768.045" r="4.059"/>
<circle cx="115.378" cy="1308.963" r="4.059"/>
<circle cx="110.201" cy="1328.282" r="5.046"/>
<circle cx="105.025" cy="1347.600" r="6.629"/>
<circle cx="409.044" cy="290.258" r="4.946"/>
<circle cx="403.868" cy="309.577" r="6.778"/>
<circle cx="398.692" cy="328.895" r="5.653"/>
<circle cx="393.515" cy="348.214" r="4.180"/>
<circle cx="388.339" cy="367.532" r="4.579"/>
<circle cx="383.162" cy="386.851" r="5.519"/>
<circle cx="377.986" cy="406.169" r="5.741"/>
<circle cx="372.810" cy="425.488" r="6.851"/>
<circle cx="367.633" cy="444.806" r="8.450"/>
<circle cx="362.457" cy="464.125" r="10.361"/>
<circle cx="357.281" cy="483.443" r="10.264"/>
<circle cx="352.104" cy="502.762" r="8.301"/>
<circle cx="346.928" cy="522.080" r="9.842"/>
<circle cx="341.751" cy="541.399" r="10.576"/>
<circle cx="336.575" cy="560.717" r="9.791"/>
<circle cx="331.399" cy="580.036" r="10.043"/>
<circle cx="326.222" cy="599.354" r="10.240"/>
<circle cx="321.046" cy="618.673" r="10.117"/>
<circle cx="315.869" cy="637.991" r="9.993"/>
<circle cx="310.693" cy="657.310" r="8.180"/>
<circle cx="305.517" cy="676.628" r="9.049"/>
<circle cx="300.340" cy="695.947" r="9.213"/>
<circle cx="295.164" cy="715.265" r="5.609"/>
<circle cx="289.988" cy="734.584" r="6.438"/>
<circle cx="284.811" cy="753.902" r="5.288"/>
<circle cx="279.635" cy="773.221" r="4.298"/>
<circle cx="274.458" cy="792.539" r="4.059"/>
<circle cx="145.049" cy="1275.502" r="4.687"/>
<circle cx="139.873" cy="1294.821" r="5.653"/>
<circle cx="134.696" cy="1314.139" r="6.201"/>
<circle cx="129.520" cy="1333.458" r="6.553"/>
<circle cx="124.343" cy="1352.776" r="7.478"/>
<circle cx="449.068" cy="218.160" r="4.059"/>
<circle cx="443.892" cy="237.479" r="4.180"/>
<circle cx="438.716" cy="256.797" r="4.740"/>
<circle cx="433.539" cy="276.116" r="5.996"/>
<circle cx="428.363" cy="295.434" r="7.411"/>
<circle cx="423.186" cy="314.753" r="8.882"/>
<circle cx="418.010" cy="334.071" r="8.057"/>
<circle cx="412.834" cy="353.390" r="7.511"/>
<circle cx="407.657" cy="372.708" r="7.206"/>
<circle cx="402.481" cy="392.027" r="6.741"/>
<circle cx="397.305" cy="411.346" r="7.101"/>
<circle cx="392.128" cy="430.664" r="7.031"/>
<circle cx="386.952" cy="449.983" r="8.118"/>
<circle cx="381.775" cy="469.301" r="10.068"/>
<circle cx="376.599" cy="488.620" r="10.552"/>
<circle cx="371.423" cy="507.938" r="9.689"/>
<circle cx="366.246" cy="527.257" r="8.797"/>
<circle cx="361.070" cy="546.575" r="10.832"/>
<circle cx="355.894" cy="565.894" r="10.576"/>
<circle cx="350.717" cy="585.212" r="10.623"/>
<circle cx="345.541" cy="604.531" r="10.313"/>
<circle cx="340.364" cy="623.849" r="10.337"/>
<circle cx="335.188" cy="643.168" r="9.867"/>
<circle cx="330.012" cy="662.486" r="9.968"/>
<circle cx="324.835" cy="681.805" r="9.893"/>
<circle cx="319.659" cy="701.123" r="9.186"/>
<circle cx="314.482" cy="720.442" r="9.022"/>
<circle cx="309.306" cy="739.760" r="9.533"/>
<circle cx="304.130" cy="759.079" r="9.766"/>
<circle cx="298.953" cy="778.397" r="8.509"/>
<circle cx="293.777" cy="797.716" r="4.997"/>
<circle cx="169.544" cy="1261.360" r="5.193"/>
<circle cx="164.367" cy="1280.679" r="5.609"/>
<circle cx="159.191" cy="1299.997" r="5.288"/>
<circle cx="154.015" cy="1319.316" r="5.144"/>
<circle cx="148.838" cy="1338.634" r="5.519"/>
<circle cx="478.740" cy="184.700" r="4.120"/>
<circle cx="473.563" cy="204.018" r="4.059"/>
<circle cx="468.387" cy="223.337" r="4.180"/>
<circle cx="463.211" cy="242.655" r="6.281"/>
<circle cx="458.034" cy="261.974" r="7.478"/>
<circle cx="452.858" cy="281.292" r="8.210"/>
<circle cx="447.681" cy="300.611" r="8.994"/>
<circle cx="442.505" cy="319.929" r="9.689"/>
<circle cx="437.329" cy="339.248" r="10.623"/>
<circle cx="432.152" cy="358.566" r="10.623"/>
<circle cx="426.976" cy="377.885" r="9.401"/>
<circle cx="421.799" cy="397.203" r="7.900"/>
<circle cx="416.623" cy="416.522" r="7.805"/>
<circle cx="411.447" cy="435.840" r="7.900"/>
<circle cx="406.270" cy="455.159" r="7.805"/>
<circle cx="401.094" cy="474.477" r="9.637"/>
<circle cx="395.918" cy="493.796" r="10.832"/>
<circle cx="390.741" cy="513.114" r="10.117"/>
<circle cx="385.565" cy="532.433" r="9.791"/>
<circle cx="380.388" cy="551.751" r="10.740"/>
<circle cx="375.212" cy="571.070" r="10.409"/>
<circle cx="370.036" cy="590.389" r="10.832"/>
<circle cx="364.859" cy="609.707" r="10.878"/>
<circle cx="359.683" cy="629.026" r="10.646"/>
<circle cx="354.507" cy="648.344" r="9.766"/>
<circle cx="349.330" cy="667.663" r="9.454"/>
<circle cx="344.154" cy="686.981" r="10.313"/>
<circle cx="338.977" cy="706.300" r="10.142"/>
<circle cx="333.801" cy="725.618" r="8.966"/>
<circle cx="328.625" cy="744.937" r="9.611"/>
<circle cx="323.448" cy="764.255" r="10.093"/>
<circle cx="318.272" cy="783.574" r="8.882"/>
<circle cx="313.095" cy="802.892" r="6.704"/>
<circle cx="307.919" cy="822.211" r="4.180"/>
<circle cx="302.743" cy="841.529" r="4.059"/>
<circle cx="194.039" cy="1247.218" r="6.476"/>
<circle cx="188.862" cy="1266.537" r="5.046"/>
<circle cx="183.686" cy="1285.855" r="4.579"/>
<circle cx="178.510" cy="1305.174" r="4.298"/>
<circle cx="173.333" cy="1324.492" r="4.298"/>
<circle cx="168.157" cy="1343.811" r="5.519"/>
<circle cx="503.235" cy="170.558" r="4.298"/>
<circle cx="498.058" cy="189.876" r="4.525"/>
<circle cx="487.705" cy="228.513" r="4.180"/>
<circle cx="482.529" cy="247.832" r="7.676"/>
<circle cx="477.353" cy="267.150" r="9.637"/>
<circle cx="472.176" cy="286.469" r="9.867"/>
<circle cx="467.000" cy="305.787" r="9.791"/>
<circle cx="461.824" cy="325.106" r="10.191"/>
<circle cx="456.647" cy="344.424" r="10.599"/>
<circle cx="451.471" cy="363.743" r="10.901"/>
<circle cx="446.294" cy="383.061" r="10.832"/>
<circle cx="441.118" cy="402.380" r="9.867"/>
<circle cx="435.942" cy="421.698" r="8.910"/>
<circle cx="430.765" cy="441.017" r="8.596"/>
<circle cx="425.589" cy="460.335" r="8.149"/>
<circle cx="420.412" cy="479.654" r="9.533"/>
<circle cx="415.236" cy="498.972" r="10.901"/>
<circle cx="410.060" cy="518.291" r="10.505"/>
<circle cx="404.883" cy="537.609" r="10.018"/>
<circle cx="399.707" cy="556.928" r="8.769"/>
<circle cx="394.531" cy="576.246" r="9.294"/>
<circle cx="389.354" cy="595.565" r="10.117"/>
<circle cx="384.178" cy="614.883" r="10.576"/>
<circle cx="379.001" cy="634.202" r="10.599"/>
<circle cx="373.825" cy="653.520" r="10.409"/>
<circle cx="368.649" cy="672.839" r="9.559"/>
<circle cx="363.472" cy="692.157" r="8.966"/>
<circle cx="358.296" cy="711.476" r="9.507"/>
<circle cx="353.120" cy="730.795" r="7.511"/>
<circle cx="347.943" cy="750.113" r="6.851"/>
<circle cx="342.767" cy="769.432" r="8.057"/>
<circle cx="337.590" cy="788.750" r="7.611"/>
<circle cx="332.414" cy="808.069" r="7.171"/>
<circle cx="327.238" cy="827.387" r="5.288"/>
<circle cx="322.061" cy="846.706" r="4.120"/>
<circle cx="316.885" cy="866.024" r="4.059"/>
<circle cx="213.357" cy="1252.394" r="7.309"/>
<circle cx="208.181" cy="1271.713" r="5.784"/>
<circle cx="203.004" cy="1291.032" r="4.413"/>
<circle cx="197.828" cy="1310.350" r="4.180"/>
<circle cx="187.475" cy="1348.987" r="5.996"/>
<circle cx="522.553" cy="175.734" r="4.634"/>
<circle cx="507.024" cy="233.689" r="4.579"/>
<circle cx="501.848" cy="253.008" r="7.773"/>
<circle cx="496.671" cy="272.327" r="10.142"/>
<circle cx="491.495" cy="291.645" r="10.693"/>
<circle cx="486.318" cy="310.964" r="10.264"/>
<circle cx="481.142" cy="330.282" r="10.191"/>
<circle cx="475.966" cy="349.601" r="10.361"/>
<circle cx="470.789" cy="368.919" r="10.240"/>
<circle cx="465.613" cy="388.238" r="8.509"/>
<circle cx="460.437" cy="407.556" r="5.653"/>
<circle cx="455.260" cy="426.875" r="5.144"/>
<circle cx="450.084" cy="446.193" r="5.240"/>
<circle cx="444.907" cy="465.512" r="6.515"/>
<circle cx="439.731" cy="484.830" r="9.321"/>
<circle cx="434.555" cy="504.149" r="10.809"/>
<circle cx="429.378" cy="523.467" r="9.993"/>
<circle cx="424.202" cy="542.786" r="7.309"/>
<circle cx="419.025" cy="562.104" r="8.149"/>
<circle cx="413.849" cy="581.423" r="10.240"/>
<circle cx="408.673" cy="600.741" r="9.663"/>
<circle cx="403.496" cy="620.060" r="9.663"/>
<circle cx="398.320" cy="639.378" r="10.361"/>
<circle cx="393.144" cy="658.697" r="10.528"/>
<circle cx="387.967" cy="678.015" r="9.893"/>
<circle cx="382.791" cy="697.334" r="9.348"/>
<circle cx="377.614" cy="716.652" r="9.049"/>
<circle cx="372.438" cy="735.971" r="9.077"/>
<circle cx="367.262" cy="755.289" r="6.995"/>
<circle cx="362.085" cy="774.608" r="6.629"/>
<circle cx="356.909" cy="793.926" r="7.578"/>
<circle cx="351.733" cy="813.245" r="8.026"/>
<circle cx="346.556" cy="832.563" r="8.683"/>
<circle cx="341.380" cy="851.882" r="5.288"/>
<circle cx="336.203" cy="871.201" r="4.298"/>
<circle cx="227.499" cy="1276.889" r="8.538"/>
<circle cx="222.323" cy="1296.208" r="5.288"/>
<circle cx="217.147" cy="1315.526" r="4.525"/>
<circle cx="211.970" cy="1334.845" r="4.240"/>
<circle cx="531.519" cy="219.547" r="4.120"/>
<circle cx="526.342" cy="238.866" r="4.844"/>
<circle cx="521.166" cy="258.184" r="7.478"/>
<circle cx="515.990" cy="277.503" r="9.867"/>
<circle cx="510.813" cy="296.821" r="10.786"/>
<circle cx="505.637" cy="316.140" r="10.646"/>
<circle cx="500.461" cy="335.458" r="10.093"/>
<circle cx="495.284" cy="354.777" r="9.480"/>
<circle cx="490.108" cy="374.095" r="8.301"/>
<circle cx="484.931" cy="393.414" r="6.360"/>
<circle cx="479.755" cy="412.733" r="4.687"/>
<circle cx="474.579" cy="432.051" r="4.469"/>
<circle cx="469.402" cy="451.370" r="4.525"/>
<circle cx="464.226" cy="470.688" r="4.634"/>
<circle cx="459.050" cy="490.007" r="7.206"/>
<circle cx="453.873" cy="509.325" r="8.712"/>
<circle cx="448.697" cy="528.644" r="6.778"/>
<circle cx="443.520" cy="547.962" r="5.996"/>
<circle cx="438.344" cy="567.281" r="9.637"/>
<circle cx="433.168" cy="586.599" r="9.267"/>
<circle cx="427.991" cy="605.918" r="7.478"/>
<circle cx="422.815" cy="625.236" r="9.022"/>
<circle cx="417.638" cy="644.555" r="10.215"/>
<circle cx="412.462" cy="663.873" r="10.855"/>
<circle cx="407.286" cy="683.192" r="9.480"/>
<circle cx="402.109" cy="702.510" r="7.511"/>
<circle cx="396.933" cy="721.829" r="7.411"/>
<circle cx="391.757" cy="741.147" r="8.420"/>
<circle cx="386.580" cy="760.466" r="9.374"/>
<circle cx="381.404" cy="779.784" r="9.104"/>
<circle cx="376.227" cy="799.103" r="9.427"/>
<circle cx="371.051" cy="818.421" r="9.740"/>
<circle cx="365.875" cy="837.740" r="10.457"/>
<circle cx="360.698" cy="857.058" r="9.267"/>
<circle cx="355.522" cy="876.377" r="7.171"/>
<circle cx="350.346" cy="895.695" r="5.095"/>
<circle cx="345.169" cy="915.014" r="4.469"/>
<circle cx="246.818" cy="1282.066" r="6.741"/>
<circle cx="241.642" cy="1301.384" r="9.132"/>
<circle cx="236.465" cy="1320.703" r="4.997"/>
<circle cx="231.289" cy="1340.021" r="4.844"/>
<circle cx="556.014" cy="205.405" r="4.120"/>
<circle cx="550.837" cy="224.724" r="5.046"/>
<circle cx="545.661" cy="244.042" r="6.037"/>
<circle cx="540.485" cy="263.361" r="7.136"/>
<circle cx="535.308" cy="282.679" r="8.797"/>
<circle cx="530.132" cy="301.998" r="9.867"/>
<circle cx="524.955" cy="321.316" r="9.533"/>
<circle cx="519.779" cy="340.635" r="9.159"/>
<circle cx="514.603" cy="359.953" r="8.625"/>
<circle cx="509.426" cy="379.272" r="7.136"/>
<circle cx="504.250" cy="398.590" r="4.997"/>
<circle cx="499.074" cy="417.909" r="4.240"/>
<circle cx="493.897" cy="437.227" r="4.059"/>
<circle cx="488.721" cy="456.546" r="4.240"/>
<circle cx="483.544" cy="475.864" r="4.356"/>
<circle cx="478.368" cy="495.183" r="4.844"/>
<circle cx="473.192" cy="514.501" r="5.144"/>
<circle cx="468.015" cy="533.820" r="4.997"/>
<circle cx="462.839" cy="553.139" r="5.827"/>
<circle cx="457.662" cy="572.457" r="9.791"/>
<circle cx="452.486" cy="591.776" r="8.654"/>
<circle cx="447.310" cy="611.094" r="7.309"/>
<circle cx="442.133" cy="630.413" r="8.149"/>
<circle cx="436.957" cy="649.731" r="9.559"/>
<circle cx="431.781" cy="669.050" r="11.128"/>
<circle cx="426.604" cy="688.368" r="10.670"/>
<circle cx="421.428" cy="707.687" r="7.031"/>
<circle cx="416.251" cy="727.005" r="5.653"/>
<circle cx="411.075" cy="746.324" r="6.360"/>
<circle cx="405.899" cy="765.642" r="7.932"/>
<circle cx="400.722" cy="784.961" r="9.374"/>
<circle cx="395.546" cy="804.279" r="9.918"/>
<circle cx="390.370" cy="823.598" r="10.385"/>
<circle cx="385.193" cy="842.916" r="10.809"/>
<circle cx="380.017" cy="862.235" r="10.361"/>
<circle cx="374.840" cy="881.553" r="10.740"/>
<circle cx="369.664" cy="900.872" r="7.773"/>
<circle cx="364.488" cy="920.190" r="6.959"/>
<circle cx="359.311" cy="939.509" r="5.046"/>
<circle cx="354.135" cy="958.827" r="4.120"/>
<circle cx="271.313" cy="1267.924" r="4.413"/>
<circle cx="266.136" cy="1287.242" r="9.132"/>
<circle cx="260.960" cy="1306.561" r="10.992"/>
<circle cx="255.784" cy="1325.879" r="10.093"/>
<circle cx="250.607" cy="1345.198" r="8.712"/>
<circle cx="580.509" cy="191.263" r="4.740"/>
<circle cx="575.332" cy="210.582" r="5.609"/>
<circle cx="570.156" cy="229.900" r="6.360"/>
<circle cx="564.979" cy="249.219" r="7.241"/>
<circle cx="559.803" cy="268.537" r="7.869"/>
<circle cx="554.627" cy="287.856" r="8.331"/>
<circle cx="549.450" cy="307.174" r="8.026"/>
<circle cx="544.274" cy="326.493" r="7.511"/>
<circle cx="539.098" cy="345.811" r="6.995"/>
<circle cx="533.921" cy="365.130" r="7.578"/>
<circle cx="528.745" cy="384.448" r="6.814"/>
<circle cx="523.568" cy="403.767" r="4.740"/>
<circle cx="518.392" cy="423.085" r="4.120"/>
<circle cx="513.216" cy="442.404" r="4.059"/>
<circle cx="508.039" cy="461.722" r="4.120"/>
<circle cx="502.863" cy="481.041" r="4.240"/>
<circle cx="497.687" cy="500.359" r="4.240"/>
<circle cx="492.510" cy="519.678" r="4.298"/>
<circle cx="487.334" cy="538.996" r="4.634"/>
<circle cx="482.157" cy="558.315" r="5.870"/>
<circle cx="476.981" cy="577.633" r="9.993"/>
<circle cx="471.805" cy="596.952" r="8.826"/>
<circle cx="466.628" cy="616.270" r="7.837"/>
<circle cx="461.452" cy="635.589" r="6.320"/>
<circle cx="456.275" cy="654.907" r="10.552"/>
<circle cx="451.099" cy="674.226" r="10.786"/>
<circle cx="445.923" cy="693.545" r="8.479"/>
<circle cx="440.746" cy="712.863" r="5.381"/>
<circle cx="435.570" cy="732.182" r="4.946"/>
<circle cx="430.394" cy="751.500" r="5.428"/>
<circle cx="425.217" cy="770.819" r="6.438"/>
<circle cx="420.041" cy="790.137" r="7.994"/>
<circle cx="414.864" cy="809.456" r="9.427"/>
<circle cx="409.688" cy="828.774" r="10.093"/>
<circle cx="404.512" cy="848.093" r="10.457"/>
<circle cx="399.335" cy="867.411" r="9.637"/>
<circle cx="394.159" cy="886.730" r="10.832"/>
<circle cx="388.983" cy="906.048" r="10.018"/>
<circle cx="383.806" cy="925.367" r="9.533"/>
<circle cx="378.630" cy="944.685" r="7.773"/>
<circle cx="373.453" cy="964.004" r="4.356"/>
<circle cx="368.277" cy="983.322" r="4.120"/>
<circle cx="363.101" cy="1002.641" r="4.059"/>
<circle cx="295.808" cy="1253.781" r="6.959"/>
<circle cx="290.631" cy="1273.100" r="10.646"/>
<circle cx="285.455" cy="1292.419" r="10.992"/>
<circle cx="280.279" cy="1311.737" r="11.038"/>
<circle cx="275.102" cy="1331.056" r="11.060"/>
<circle cx="269.926" cy="1350.374" r="9.791"/>
<circle cx="605.004" cy="177.121" r="4.793"/>
<circle cx="599.827" cy="196.439" r="6.399"/>
<circle cx="594.651" cy="215.758" r="6.704"/>
<circle cx="589.474" cy="235.076" r="7.343"/>
<circle cx="584.298" cy="254.395" r="7.741"/>
<circle cx="579.122" cy="273.714" r="8.088"/>
<circle cx="573.945" cy="293.032" r="7.708"/>
<circle cx="568.769" cy="312.351" r="6.438"/>
<circle cx="563.592" cy="331.669" r="5.741"/>
<circle cx="558.416" cy="350.988" r="5.609"/>
<circle cx="553.240" cy="370.306" r="6.995"/>
<circle cx="548.063" cy="389.625" r="6.160"/>
<circle cx="542.887" cy="408.943" r="4.634"/>
<circle cx="537.711" cy="428.262" r="4.298"/>
<circle cx="517.005" cy="505.536" r="4.120"/>
<circle cx="511.829" cy="524.854" r="4.180"/>
<circle cx="506.652" cy="544.173" r="4.525"/>
<circle cx="501.476" cy="563.491" r="5.870"/>
<circle cx="496.300" cy="582.810" r="9.993"/>
<circle cx="491.123" cy="602.128" r="9.374"/>
<circle cx="485.947" cy="621.447" r="7.241"/>
<circle cx="480.770" cy="640.765" r="7.478"/>
<circle cx="475.594" cy="660.084" r="11.173"/>
<circle cx="470.418" cy="679.402" r="9.104"/>
<circle cx="465.241" cy="698.721" r="6.399"/>
<circle cx="460.065" cy="718.039" r="4.740"/>
<circle cx="454.888" cy="737.358" r="4.687"/>
<circle cx="449.712" cy="756.676" r="4.997"/>
<circle cx="444.536" cy="775.995" r="5.564"/>
<circle cx="439.359" cy="795.313" r="6.476"/>
<circle cx="434.183" cy="814.632" r="7.805"/>
<circle cx="429.007" cy="833.950" r="8.882"/>
<circle cx="423.830" cy="853.269" r="9.740"/>
<circle cx="418.654" cy="872.588" r="10.018"/>
<circle cx="413.477" cy="891.906" r="10.385"/>
<circle cx="408.301" cy="911.225" r="10.433"/>
<circle cx="403.125" cy="930.543" r="10.576"/>
<circle cx="397.948" cy="949.862" r="10.018"/>
<circle cx="392.772" cy="969.180" r="6.923"/>
<circle cx="387.596" cy="988.499" r="4.579"/>
<circle cx="382.419" cy="1007.817" r="4.180"/>
<circle cx="320.303" cy="1239.639" r="7.171"/>
<circle cx="315.126" cy="1258.958" r="10.855"/>
<circle cx="309.950" cy="1278.276" r="10.992"/>
<circle cx="304.773" cy="1297.595" r="10.992"/>
<circle cx="299.597" cy="1316.913" r="11.038"/>
<circle cx="294.421" cy="1336.232" r="11.060"/>
<circle cx="624.322" cy="182.297" r="4.844"/>
<circle cx="619.146" cy="201.616" r="7.377"/>
<circle cx="613.969" cy="220.934" r="7.900"/>
<circle cx="608.793" cy="240.253" r="8.938"/>
<circle cx="603.617" cy="259.571" r="7.900"/>
<circle cx="598.440" cy="278.890" r="7.241"/>
<circle cx="593.264" cy="298.208" r="6.438"/>
<circle cx="588.087" cy="317.527" r="5.996"/>
<circle cx="582.911" cy="336.845" r="6.741"/>
<circle cx="577.735" cy="356.164" r="7.741"/>
<circle cx="572.558" cy="375.482" r="7.411"/>
<circle cx="567.382" cy="394.801" r="6.438"/>
<circle cx="562.205" cy="414.120" r="4.687"/>
<circle cx="557.029" cy="433.438" r="4.180"/>
<circle cx="531.147" cy="530.031" r="4.059"/>
<circle cx="525.971" cy="549.349" r="4.240"/>
<circle cx="520.794" cy="568.668" r="6.119"/>
<circle cx="515.618" cy="587.986" r="9.714"/>
<circle cx="510.442" cy="607.305" r="9.663"/>
<circle cx="505.265" cy="626.623" r="7.708"/>
<circle cx="500.089" cy="645.942" r="8.479"/>
<circle cx="494.913" cy="665.260" r="10.191"/>
<circle cx="489.736" cy="684.579" r="6.704"/>
<circle cx="484.560" cy="703.897" r="5.473"/>
<circle cx="479.383" cy="723.216" r="4.525"/>
<circle cx="474.207" cy="742.534" r="4.579"/>
<circle cx="469.031" cy="761.853" r="4.844"/>
<circle cx="463.854" cy="781.171" r="5.193"/>
<circle cx="458.678" cy="800.490" r="5.741"/>
<circle cx="453.501" cy="819.808" r="6.515"/>
<circle cx="448.325" cy="839.127" r="7.578"/>
<circle cx="443.149" cy="858.445" r="8.331"/>
<circle cx="437.972" cy="877.764" r="9.213"/>
<circle cx="432.796" cy="897.082" r="9.585"/>
<circle cx="427.620" cy="916.401" r="9.943"/>
<circle cx="422.443" cy="935.719" r="10.552"/>
<circle cx="417.267" cy="955.038" r="10.433"/>
<circle cx="412.090" cy="974.356" r="9.943"/>
<circle cx="406.914" cy="993.675" r="6.923"/>
<circle cx="401.738" cy="1012.994" r="4.997"/>
<circle cx="396.561" cy="1032.312" r="4.180"/>
<circle cx="349.974" cy="1206.179" r="4.180"/>
<circle cx="344.797" cy="1225.497" r="9.454"/>
<circle cx="339.621" cy="1244.816" r="10.901"/>
<circle cx="334.445" cy="1264.134" r="10.992"/>
<circle cx="329.268" cy="1283.453" r="11.015"/>
<circle cx="324.092" cy="1302.771" r="11.015"/>
<circle cx="318.916" cy="1322.090" r="11.015"/>
<circle cx="313.739" cy="1341.408" r="10.670"/>
<circle cx="690.228" cy="13.607" r="4.059"/>
<circle cx="648.817" cy="168.155" r="4.356"/>
<circle cx="643.641" cy="187.474" r="5.144"/>
<circle cx="638.464" cy="206.792" r="7.676"/>
<circle cx="633.288" cy="226.111" r="9.186"/>
<circle cx="628.111" cy="245.429" r="10.142"/>
<circle cx="622.935" cy="264.748" r="9.766"/>
<circle cx="617.759" cy="284.066" r="7.578"/>
<circle cx="612.582" cy="303.385" r="5.827"/>
<circle cx="607.406" cy="322.703" r="5.240"/>
<circle cx="602.230" cy="342.022" r="5.912"/>
<circle cx="597.053" cy="361.340" r="7.611"/>
<circle cx="591.877" cy="380.659" r="7.206"/>
<circle cx="586.700" cy="399.977" r="6.515"/>
<circle cx="581.524" cy="419.296" r="4.740"/>
<circle cx="576.348" cy="438.614" r="4.180"/>
<circle cx="571.171" cy="457.933" r="4.120"/>
<circle cx="565.995" cy="477.251" r="4.059"/>
<circle cx="560.818" cy="496.570" r="4.059"/>
<circle cx="555.642" cy="515.888" r="4.059"/>
<circle cx="545.289" cy="554.526" r="4.413"/>
<circle cx="540.113" cy="573.844" r="5.288"/>
<circle cx="534.937" cy="593.163" r="7.545"/>
<circle cx="529.760" cy="612.481" r="9.104"/>
<circle cx="524.584" cy="631.800" r="8.882"/>
<circle cx="519.407" cy="651.118" r="8.391"/>
<circle cx="514.231" cy="670.437" r="6.778"/>
<circle cx="509.055" cy="689.755" r="5.144"/>
<circle cx="503.878" cy="709.074" r="4.793"/>
<circle cx="498.702" cy="728.392" r="5.046"/>
<circle cx="493.526" cy="747.711" r="5.095"/>
<circle cx="488.349" cy="767.029" r="5.046"/>
<circle cx="483.173" cy="786.348" r="5.144"/>
<circle cx="477.996" cy="805.666" r="5.335"/>
<circle cx="472.820" cy="824.985" r="5.912"/>
<circle cx="467.644" cy="844.303" r="6.629"/>
<circle cx="462.467" cy="863.622" r="7.206"/>
<circle cx="457.291" cy="882.940" r="7.837"/>
<circle cx="452.114" cy="902.259" r="8.301"/>
<circle cx="446.938" cy="921.577" r="8.994"/>
<circle cx="441.762" cy="940.896" r="9.663"/>
<circle cx="436.585" cy="960.214" r="10.337"/>
<circle cx="431.409" cy="979.533" r="10.670"/>
<circle cx="426.233" cy="998.851" r="9.689"/>
<circle cx="421.056" cy="1018.170" r="7.545"/>
<circle cx="415.880" cy="1037.488" r="4.634"/>
<circle cx="369.292" cy="1211.355" r="9.348"/>
<circle cx="364.116" cy="1230.674" r="10.947"/>
<circle cx="358.940" cy="1249.992" r="11.038"/>
<circle cx="353.763" cy="1269.311" r="11.060"/>
<circle cx="348.587" cy="1288.629" r="11.060"/>
<circle cx="343.410" cy="1307.948" r="11.038"/>
<circle cx="338.234" cy="1327.266" r="11.038"/>
<circle cx="333.058" cy="1346.585" r="9.893"/>
<circle cx="709.547" cy="18.783" r="4.059"/>
<circle cx="704.370" cy="38.102" r="4.059"/>
<circle cx="699.194" cy="57.420" r="4.059"/>
<circle cx="673.312" cy="154.013" r="4.298"/>
<circle cx="668.135" cy="173.332" r="4.240"/>
<circle cx="657.783" cy="211.969" r="6.515"/>
<circle cx="652.606" cy="231.287" r="9.401"/>
<circle cx="647.430" cy="250.606" r="10.117"/>
<circle cx="642.254" cy="269.924" r="9.740"/>
<circle cx="637.077" cy="289.243" r="8.301"/>
<circle cx="631.901" cy="308.561" r="6.666"/>
<circle cx="626.724" cy="327.880" r="5.381"/>
<circle cx="621.548" cy="347.198" r="5.144"/>
<circle cx="616.372" cy="366.517" r="5.653"/>
<circle cx="611.195" cy="385.835" r="6.160"/>
<circle cx="606.019" cy="405.154" r="5.697"/>
<circle cx="600.843" cy="424.472" r="4.356"/>
<circle cx="595.666" cy="443.791" r="4.180"/>
<circle cx="590.490" cy="463.109" r="4.059"/>
<circle cx="585.313" cy="482.428" r="4.059"/>
<circle cx="580.137" cy="501.746" r="4.059"/>
<circle cx="574.961" cy="521.065" r="4.120"/>
<circle cx="569.784" cy="540.383" r="4.180"/>
<circle cx="564.608" cy="559.702" r="4.687"/>
<circle cx="559.431" cy="579.020" r="5.240"/>
<circle cx="554.255" cy="598.339" r="6.160"/>
<circle cx="549.079" cy="617.657" r="7.963"/>
<circle cx="543.902" cy="636.976" r="9.611"/>
<circle cx="538.726" cy="656.294" r="7.837"/>
<circle cx="533.550" cy="675.613" r="6.814"/>
<circle cx="528.373" cy="694.932" r="5.564"/>
<circle cx="523.197" cy="714.250" r="5.827"/>
<circle cx="518.020" cy="733.569" r="6.476"/>
<circle cx="512.844" cy="752.887" r="6.399"/>
<circle cx="507.668" cy="772.206" r="6.119"/>
<circle cx="502.491" cy="791.524" r="5.784"/>
<circle cx="497.315" cy="810.843" r="5.335"/>
<circle cx="492.139" cy="830.161" r="5.473"/>
<circle cx="486.962" cy="849.480" r="6.360"/>
<circle cx="481.786" cy="868.798" r="6.959"/>
<circle cx="476.609" cy="888.117" r="7.411"/>
<circle cx="471.433" cy="907.435" r="7.101"/>
<circle cx="466.257" cy="926.754" r="7.411"/>
<circle cx="461.080" cy="946.072" r="8.596"/>
<circle cx="455.904" cy="965.391" r="9.791"/>
<circle cx="450.727" cy="984.709" r="10.481"/>
<circle cx="445.551" cy="1004.028" r="9.663"/>
<circle cx="440.375" cy="1023.346" r="9.104"/>
<circle cx="435.198" cy="1042.665" r="5.144"/>
<circle cx="393.787" cy="1197.213" r="7.478"/>
<circle cx="388.611" cy="1216.531" r="10.970"/>
<circle cx="383.435" cy="1235.850" r="11.015"/>
<circle cx="378.258" cy="1255.168" r="11.083"/>
<circle cx="373.082" cy="1274.487" r="11.060"/>
<circle cx="367.905" cy="1293.806" r="11.105"/>
<circle cx="362.729" cy="1313.124" r="11.105"/>
<circle cx="357.553" cy="1332.443" r="11.173"/>
<circle cx="352.376" cy="1351.761" r="9.842"/>
<circle cx="728.865" cy="23.960" r="4.059"/>
<circle cx="723.689" cy="43.278" r="4.059"/>
<circle cx="692.630" cy="159.189" r="4.793"/>
<circle cx="677.101" cy="217.145" r="4.298"/>
<circle cx="671.925" cy="236.463" r="7.578"/>
<circle cx="666.748" cy="255.782" r="10.142"/>
<circle cx="661.572" cy="275.101" r="10.289"/>
<circle cx="656.396" cy="294.419" r="9.104"/>
<circle cx="651.219" cy="313.738" r="8.149"/>
<circle cx="646.043" cy="333.056" r="6.241"/>
<circle cx="640.867" cy="352.375" r="5.954"/>
<circle cx="635.690" cy="371.693" r="7.411"/>
<circle cx="630.514" cy="391.012" r="5.912"/>
<circle cx="625.337" cy="410.330" r="4.687"/>
<circle cx="620.161" cy="429.649" r="4.413"/>
<circle cx="614.985" cy="448.967" r="4.298"/>
<circle cx="609.808" cy="468.286" r="4.120"/>
<circle cx="604.632" cy="487.604" r="4.059"/>
<circle cx="599.455" cy="506.923" r="4.120"/>
<circle cx="594.279" cy="526.241" r="4.120"/>
<circle cx="589.103" cy="545.560" r="4.356"/>
<circle cx="583.926" cy="564.878" r="4.793"/>
<circle cx="578.750" cy="584.197" r="5.240"/>
<circle cx="573.574" cy="603.515" r="5.697"/>
<circle cx="568.397" cy="622.834" r="6.553"/>
<circle cx="563.221" cy="642.152" r="7.611"/>
<circle cx="558.044" cy="661.471" r="7.963"/>
<circle cx="552.868" cy="680.789" r="7.445"/>
<circle cx="547.692" cy="700.108" r="7.241"/>
<circle cx="542.515" cy="719.426" r="7.445"/>
<circle cx="537.339" cy="738.745" r="7.837"/>
<circle cx="532.163" cy="758.063" r="8.180"/>
<circle cx="526.986" cy="777.382" r="8.026"/>
<circle cx="521.810" cy="796.700" r="7.932"/>
<circle cx="516.633" cy="816.019" r="6.201"/>
<circle cx="511.457" cy="835.338" r="5.954"/>
<circle cx="506.281" cy="854.656" r="6.741"/>
<circle cx="501.104" cy="873.975" r="8.180"/>
<circle cx="495.928" cy="893.293" r="8.769"/>
<circle cx="490.751" cy="912.612" r="6.629"/>
<circle cx="485.575" cy="931.930" r="6.778"/>
<circle cx="480.399" cy="951.249" r="7.708"/>
<circle cx="475.222" cy="970.567" r="8.797"/>
<circle cx="470.046" cy="989.886" r="9.893"/>
<circle cx="464.870" cy="1009.204" r="10.117"/>
<circle cx="459.693" cy="1028.523" r="8.938"/>
<circle cx="454.517" cy="1047.841" r="4.844"/>
<circle cx="413.106" cy="1202.389" r="10.385"/>
<circle cx="407.929" cy="1221.708" r="11.038"/>
<circle cx="402.753" cy="1241.026" r="11.060"/>
<circle cx="397.577" cy="1260.345" r="11.083"/>
<circle cx="392.400" cy="1279.663" r="11.083"/>
<circle cx="387.224" cy="1298.982" r="11.083"/>
<circle cx="382.047" cy="1318.300" r="11.083"/>
<circle cx="376.871" cy="1337.619" r="11.105"/>
<circle cx="711.949" cy="164.366" r="5.046"/>
<circle cx="706.772" cy="183.684" r="4.059"/>
<circle cx="701.596" cy="203.003" r="4.298"/>
<circle cx="696.420" cy="222.321" r="5.473"/>
<circle cx="691.243" cy="241.640" r="6.553"/>
<circle cx="686.067" cy="260.958" r="8.509"/>
<circle cx="680.891" cy="280.277" r="8.538"/>
<circle cx="675.714" cy="299.595" r="7.805"/>
<circle cx="670.538" cy="318.914" r="6.241"/>
<circle cx="665.361" cy="338.232" r="5.240"/>
<circle cx="660.185" cy="357.551" r="6.438"/>
<circle cx="655.009" cy="376.869" r="6.553"/>
<circle cx="649.832" cy="396.188" r="4.793"/>
<circle cx="644.656" cy="415.507" r="4.634"/>
<circle cx="639.480" cy="434.825" r="4.413"/>
<circle cx="634.303" cy="454.144" r="4.240"/>
<circle cx="629.127" cy="473.462" r="4.180"/>
<circle cx="623.950" cy="492.781" r="4.120"/>
<circle cx="618.774" cy="512.099" r="4.180"/>
<circle cx="613.598" cy="531.418" r="4.298"/>
<circle cx="608.421" cy="550.736" r="4.634"/>
<circle cx="603.245" cy="570.055" r="5.288"/>
<circle cx="598.068" cy="589.373" r="5.428"/>
<circle cx="592.892" cy="608.692" r="5.473"/>
<circle cx="587.716" cy="628.010" r="5.335"/>
<circle cx="582.539" cy="647.329" r="5.240"/>
<circle cx="577.363" cy="666.647" r="5.564"/>
<circle cx="572.187" cy="685.966" r="6.360"/>
<circle cx="567.010" cy="705.284" r="6.741"/>
<circle cx="561.834" cy="724.603" r="7.343"/>
<circle cx="556.657" cy="743.921" r="7.445"/>
<circle cx="551.481" cy="763.240" r="7.869"/>
<circle cx="546.305" cy="782.558" r="9.611"/>
<circle cx="541.128" cy="801.877" r="10.786"/>
<circle cx="535.952" cy="821.195" r="7.837"/>
<circle cx="530.776" cy="840.514" r="6.360"/>
<circle cx="525.599" cy="859.832" r="7.545"/>
<circle cx="520.423" cy="879.151" r="10.763"/>
<circle cx="515.246" cy="898.469" r="10.924"/>
<circle cx="510.070" cy="917.788" r="9.104"/>
<circle cx="504.894" cy="937.106" r="7.309"/>
<circle cx="499.717" cy="956.425" r="7.309"/>
<circle cx="494.541" cy="975.744" r="7.837"/>
<circle cx="489.364" cy="995.062" r="9.022"/>
<circle cx="484.188" cy="1014.381" r="10.093"/>
<circle cx="479.012" cy="1033.699" r="9.401"/>
<circle cx="473.835" cy="1053.018" r="5.697"/>
<circle cx="437.601" cy="1188.247" r="8.361"/>
<circle cx="432.424" cy="1207.566" r="11.015"/>
<circle cx="427.248" cy="1226.884" r="11.060"/>
<circle cx="422.072" cy="1246.203" r="10.901"/>
<circle cx="416.895" cy="1265.521" r="10.693"/>
<circle cx="411.719" cy="1284.840" r="10.142"/>
<circle cx="406.542" cy="1304.158" r="9.968"/>
<circle cx="401.366" cy="1323.477" r="9.842"/>
<circle cx="396.190" cy="1342.795" r="9.186"/>
<circle cx="736.444" cy="150.224" r="4.356"/>
<circle cx="731.267" cy="169.542" r="4.687"/>
<circle cx="720.915" cy="208.179" r="4.896"/>
<circle cx="715.738" cy="227.498" r="6.553"/>
<circle cx="710.562" cy="246.816" r="7.343"/>
<circle cx="705.385" cy="266.135" r="8.057"/>
<circle cx="700.209" cy="285.453" r="8.149"/>
<circle cx="695.033" cy="304.772" r="6.995"/>
<circle cx="689.856" cy="324.090" r="5.381"/>
<circle cx="684.680" cy="343.409" r="5.193"/>
<circle cx="679.504" cy="362.727" r="6.666"/>
<circle cx="674.327" cy="382.046" r="5.741"/>
<circle cx="669.151" cy="401.364" r="4.896"/>
<circle cx="663.974" cy="420.683" r="4.525"/>
<circle cx="658.798" cy="440.001" r="4.356"/>
<circle cx="653.622" cy="459.320" r="4.356"/>
<circle cx="648.445" cy="478.638" r="4.298"/>
<circle cx="643.269" cy="497.957" r="4.356"/>
<circle cx="638.093" cy="517.275" r="4.298"/>
<circle cx="632.916" cy="536.594" r="4.525"/>
<circle cx="627.740" cy="555.913" r="4.997"/>
<circle cx="622.563" cy="575.231" r="5.741"/>
<circle cx="617.387" cy="594.550" r="6.360"/>
<circle cx="612.211" cy="613.868" r="6.591"/>
<circle cx="607.034" cy="633.187" r="6.360"/>
<circle cx="601.858" cy="652.505" r="5.697"/>
<circle cx="596.681" cy="671.824" r="5.609"/>
<circle cx="591.505" cy="691.142" r="5.954"/>
<circle cx="586.329" cy="710.461" r="6.119"/>
<circle cx="581.152" cy="729.779" r="6.591"/>
<circle cx="575.976" cy="749.098" r="6.241"/>
<circle cx="570.800" cy="768.416" r="5.996"/>
<circle cx="565.623" cy="787.735" r="9.022"/>
<circle cx="560.447" cy="807.053" r="10.970"/>
<circle cx="555.270" cy="826.372" r="7.900"/>
<circle cx="550.094" cy="845.690" r="6.629"/>
<circle cx="544.918" cy="865.009" r="9.791"/>
<circle cx="539.741" cy="884.327" r="11.105"/>
<circle cx="534.565" cy="903.646" r="10.992"/>
<circle cx="529.389" cy="922.964" r="10.740"/>
<circle cx="524.212" cy="942.283" r="9.714"/>
<circle cx="519.036" cy="961.601" r="7.511"/>
<circle cx="513.859" cy="980.920" r="6.851"/>
<circle cx="508.683" cy="1000.238" r="7.578"/>
<circle cx="503.507" cy="1019.557" r="9.240"/>
<circle cx="498.330" cy="1038.875" r="10.763"/>
<circle cx="493.154" cy="1058.194" r="9.842"/>
<circle cx="487.977" cy="1077.512" r="6.923"/>
<circle cx="482.801" cy="1096.831" r="4.469"/>
<circle cx="477.625" cy="1116.149" r="4.180"/>
<circle cx="472.448" cy="1135.468" r="4.525"/>
<circle cx="467.272" cy="1154.787" r="5.193"/>
<circle cx="462.096" cy="1174.105" r="7.963"/>
<circle cx="456.919" cy="1193.424" r="10.947"/>
<circle cx="451.743" cy="1212.742" r="11.128"/>
<circle cx="446.566" cy="1232.061" r="9.791"/>
<circle cx="441.390" cy="1251.379" r="6.704"/>
<circle cx="436.214" cy="1270.698" r="5.519"/>
<circle cx="431.037" cy="1290.016" r="5.784"/>
<circle cx="425.861" cy="1309.335" r="6.320"/>
<circle cx="420.685" cy="1328.653" r="6.281"/>
<circle cx="415.508" cy="1347.972" r="6.778"/>
<circle cx="755.762" cy="155.400" r="4.298"/>
<circle cx="750.586" cy="174.719" r="4.298"/>
<circle cx="745.410" cy="194.037" r="4.298"/>
<circle cx="740.233" cy="213.356" r="5.193"/>
<circle cx="735.057" cy="232.674" r="6.360"/>
<circle cx="729.880" cy="251.993" r="6.923"/>
<circle cx="724.704" cy="271.311" r="7.275"/>
<circle cx="719.528" cy="290.630" r="7.708"/>
<circle cx="714.351" cy="309.948" r="7.545"/>
<circle cx="709.175" cy="329.267" r="5.912"/>
<circle cx="703.998" cy="348.585" r="5.697"/>
<circle cx="698.822" cy="367.904" r="5.954"/>
<circle cx="693.646" cy="387.222" r="5.519"/>
<circle cx="688.469" cy="406.541" r="4.997"/>
<circle cx="683.293" cy="425.859" r="4.793"/>
<circle cx="678.117" cy="445.178" r="4.687"/>
<circle cx="672.940" cy="464.496" r="4.525"/>
<circle cx="667.764" cy="483.815" r="4.579"/>
<circle cx="662.587" cy="503.133" r="4.740"/>
<circle cx="657.411" cy="522.452" r="4.634"/>
<circle cx="652.235" cy="541.770" r="4.896"/>
<circle cx="647.058" cy="561.089" r="6.160"/>
<circle cx="641.882" cy="580.407" r="7.101"/>
<circle cx="636.706" cy="599.726" r="7.741"/>
<circle cx="631.529" cy="619.044" r="8.180"/>
<circle cx="626.353" cy="638.363" r="8.118"/>
<circle cx="621.176" cy="657.681" r="7.511"/>
<circle cx="616.000" cy="677.000" r="7.343"/>
<circle cx="610.824" cy="696.319" r="7.445"/>
<circle cx="605.647" cy="715.637" r="7.445"/>
<circle cx="600.471" cy="734.956" r="7.611"/>
<circle cx="595.294" cy="754.274" r="7.411"/>
<circle cx="590.118" cy="773.593" r="7.578"/>
<circle cx="584.942" cy="792.911" r="9.993"/>
<circle cx="579.765" cy="812.230" r="10.901"/>
<circle cx="574.589" cy="831.548" r="7.676"/>
<circle cx="569.413" cy="850.867" r="6.281"/>
<circle cx="564.236" cy="870.185" r="10.481"/>
<circle cx="559.060" cy="889.504" r="9.766"/>
<circle cx="553.883" cy="908.822" r="9.213"/>
<circle cx="548.707" cy="928.141" r="10.337"/>
<circle cx="543.531" cy="947.459" r="10.786"/>
<circle cx="538.354" cy="966.778" r="8.210"/>
<circle cx="533.178" cy="986.096" r="6.778"/>
<circle cx="528.002" cy="1005.415" r="6.629"/>
<circle cx="522.825" cy="1024.733" r="7.708"/>
<circle cx="517.649" cy="1044.052" r="10.068"/>
<circle cx="512.472" cy="1063.370" r="11.150"/>
<circle cx="507.296" cy="1082.689" r="10.832"/>
<circle cx="502.120" cy="1102.007" r="9.401"/>
<circle cx="496.943" cy="1121.326" r="8.538"/>
<circle cx="491.767" cy="1140.644" r="8.420"/>
<circle cx="486.590" cy="1159.963" r="9.559"/>
<circle cx="481.414" cy="1179.281" r="11.105"/>
<circle cx="476.238" cy="1198.600" r="10.878"/>
<circle cx="471.061" cy="1217.918" r="9.132"/>
<circle cx="465.885" cy="1237.237" r="6.320"/>
<circle cx="460.709" cy="1256.555" r="5.046"/>
<circle cx="455.532" cy="1275.874" r="4.844"/>
<circle cx="450.356" cy="1295.193" r="5.144"/>
<circle cx="445.179" cy="1314.511" r="5.609"/>
<circle cx="440.003" cy="1333.830" r="5.996"/>
<circle cx="434.827" cy="1353.148" r="6.814"/>
<circle cx="775.081" cy="160.576" r="4.059"/>
<circle cx="764.728" cy="199.213" r="4.413"/>
<circle cx="759.552" cy="218.532" r="5.609"/>
<circle cx="754.375" cy="237.851" r="6.201"/>
<circle cx="749.199" cy="257.169" r="6.079"/>
<circle cx="744.023" cy="276.488" r="6.438"/>
<circle cx="738.846" cy="295.806" r="7.101"/>
<circle cx="733.670" cy="315.125" r="7.066"/>
<circle cx="728.493" cy="334.443" r="5.564"/>
<circle cx="723.317" cy="353.762" r="6.281"/>
<circle cx="718.141" cy="373.080" r="6.320"/>
<circle cx="712.964" cy="392.399" r="5.428"/>
<circle cx="707.788" cy="411.717" r="5.095"/>
<circle cx="702.611" cy="431.036" r="4.946"/>
<circle cx="697.435" cy="450.354" r="4.997"/>
<circle cx="692.259" cy="469.673" r="4.946"/>
<circle cx="687.082" cy="488.991" r="4.896"/>
<circle cx="681.906" cy="508.310" r="5.046"/>
<circle cx="676.730" cy="527.628" r="5.144"/>
<circle cx="671.553" cy="546.947" r="5.609"/>
<circle cx="666.377" cy="566.265" r="8.882"/>
<circle cx="661.200" cy="585.584" r="9.454"/>
<circle cx="656.024" cy="604.902" r="8.882"/>
<circle cx="650.848" cy="624.221" r="9.186"/>
<circle cx="645.671" cy="643.539" r="8.854"/>
<circle cx="640.495" cy="662.858" r="7.309"/>
<circle cx="635.319" cy="682.176" r="7.206"/>
<circle cx="630.142" cy="701.495" r="7.511"/>
<circle cx="624.966" cy="720.813" r="7.805"/>
<circle cx="619.789" cy="740.132" r="8.361"/>
<circle cx="614.613" cy="759.450" r="8.854"/>
<circle cx="609.437" cy="778.769" r="9.766"/>
<circle cx="604.260" cy="798.087" r="10.970"/>
<circle cx="599.084" cy="817.406" r="9.867"/>
<circle cx="593.907" cy="836.725" r="6.629"/>
<circle cx="588.731" cy="856.043" r="7.031"/>
<circle cx="583.555" cy="875.362" r="10.855"/>
<circle cx="578.378" cy="894.680" r="6.851"/>
<circle cx="573.202" cy="913.999" r="7.676"/>
<circle cx="568.026" cy="933.317" r="9.186"/>
<circle cx="562.849" cy="952.636" r="10.740"/>
<circle cx="557.673" cy="971.954" r="7.994"/>
<circle cx="552.496" cy="991.273" r="6.360"/>
<circle cx="547.320" cy="1010.591" r="6.360"/>
<circle cx="542.144" cy="1029.910" r="6.887"/>
<circle cx="536.967" cy="1049.228" r="9.427"/>
<circle cx="531.791" cy="1068.547" r="11.083"/>
<circle cx="526.615" cy="1087.865" r="11.173"/>
<circle cx="521.438" cy="1107.184" r="10.528"/>
<circle cx="516.262" cy="1126.502" r="9.585"/>
<circle cx="511.085" cy="1145.821" r="9.186"/>
<circle cx="505.909" cy="1165.139" r="9.049"/>
<circle cx="500.733" cy="1184.458" r="9.022"/>
<circle cx="495.556" cy="1203.776" r="8.088"/>
<circle cx="490.380" cy="1223.095" r="6.629"/>
<circle cx="485.203" cy="1242.413" r="5.564"/>
<circle cx="480.027" cy="1261.732" r="4.896"/>
<circle cx="474.851" cy="1281.050" r="4.740"/>
<circle cx="469.674" cy="1300.369" r="4.896"/>
<circle cx="464.498" cy="1319.687" r="5.240"/>
<circle cx="459.322" cy="1339.006" r="5.827"/>
<circle cx="794.399" cy="165.753" r="4.120"/>
<circle cx="789.223" cy="185.071" r="4.180"/>
<circle cx="784.047" cy="204.390" r="4.469"/>
<circle cx="778.870" cy="223.708" r="4.997"/>
<circle cx="773.694" cy="243.027" r="5.046"/>
<circle cx="768.517" cy="262.345" r="5.428"/>
<circle cx="763.341" cy="281.664" r="5.428"/>
<circle cx="758.165" cy="300.982" r="5.335"/>
<circle cx="752.988" cy="320.301" r="5.827"/>
<circle cx="747.812" cy="339.619" r="6.079"/>
<circle cx="742.636" cy="358.938" r="7.741"/>
<circle cx="737.459" cy="378.256" r="7.309"/>
<circle cx="732.283" cy="397.575" r="5.335"/>
<circle cx="727.106" cy="416.894" r="5.288"/>
<circle cx="721.930" cy="436.212" r="5.288"/>
<circle cx="716.754" cy="455.531" r="5.288"/>
<circle cx="711.577" cy="474.849" r="5.288"/>
<circle cx="706.401" cy="494.168" r="5.381"/>
<circle cx="701.224" cy="513.486" r="5.381"/>
<circle cx="696.048" cy="532.805" r="5.564"/>
<circle cx="690.872" cy="552.123" r="7.445"/>
<circle cx="685.695" cy="571.442" r="10.289"/>
<circle cx="680.519" cy="590.760" r="9.077"/>
<circle cx="675.343" cy="610.079" r="9.077"/>
<circle cx="670.166" cy="629.397" r="8.271"/>
<circle cx="664.990" cy="648.716" r="7.676"/>
<circle cx="659.813" cy="668.034" r="7.869"/>
<circle cx="654.637" cy="687.353" r="6.079"/>
<circle cx="649.461" cy="706.671" r="6.704"/>
<circle cx="644.284" cy="725.990" r="7.206"/>
<circle cx="639.108" cy="745.308" r="8.026"/>
<circle cx="633.932" cy="764.627" r="8.740"/>
<circle cx="628.755" cy="783.945" r="9.842"/>
<circle cx="623.579" cy="803.264" r="10.878"/>
<circle cx="618.402" cy="822.582" r="8.149"/>
<circle cx="613.226" cy="841.901" r="6.515"/>
<circle cx="608.050" cy="861.219" r="8.938"/>
<circle cx="602.873" cy="880.538" r="10.068"/>
<circle cx="597.697" cy="899.856" r="5.996"/>
<circle cx="592.520" cy="919.175" r="7.478"/>
<circle cx="587.344" cy="938.493" r="9.213"/>
<circle cx="582.168" cy="957.812" r="10.385"/>
<circle cx="576.991" cy="977.131" r="6.515"/>
<circle cx="571.815" cy="996.449" r="5.288"/>
<circle cx="566.639" cy="1015.768" r="5.954"/>
<circle cx="561.462" cy="1035.086" r="6.995"/>
<circle cx="556.286" cy="1054.405" r="9.427"/>
<circle cx="551.109" cy="1073.723" r="10.992"/>
<circle cx="545.933" cy="1093.042" r="11.173"/>
<circle cx="540.757" cy="1112.360" r="11.038"/>
<circle cx="535.580" cy="1131.679" r="10.215"/>
<circle cx="530.404" cy="1150.997" r="9.321"/>
<circle cx="525.228" cy="1170.316" r="8.654"/>
<circle cx="520.051" cy="1189.634" r="8.361"/>
<circle cx="514.875" cy="1208.953" r="8.088"/>
<circle cx="509.698" cy="1228.271" r="7.445"/>
<circle cx="504.522" cy="1247.590" r="6.160"/>
<circle cx="499.346" cy="1266.908" r="5.288"/>
<circle cx="494.169" cy="1286.227" r="4.844"/>
<circle cx="488.993" cy="1305.545" r="4.946"/>
<circle cx="483.816" cy="1324.864" r="5.335"/>
<circle cx="478.640" cy="1344.182" r="6.281"/>
<circle cx="808.541" cy="190.248" r="4.180"/>
<circle cx="803.365" cy="209.566" r="4.120"/>
<circle cx="798.189" cy="228.885" r="4.844"/>
<circle cx="793.012" cy="248.203" r="4.793"/>
<circle cx="787.836" cy="267.522" r="4.525"/>
<circle cx="782.660" cy="286.840" r="4.793"/>
<circle cx="777.483" cy="306.159" r="5.240"/>
<circle cx="772.307" cy="325.477" r="6.320"/>
<circle cx="767.130" cy="344.796" r="8.026"/>
<circle cx="761.954" cy="364.114" r="9.401"/>
<circle cx="756.778" cy="383.433" r="6.160"/>
<circle cx="751.601" cy="402.751" r="5.653"/>
<circle cx="746.425" cy="422.070" r="5.653"/>
<circle cx="741.249" cy="441.388" r="5.653"/>
<circle cx="736.072" cy="460.707" r="5.653"/>
<circle cx="730.896" cy="480.025" r="5.741"/>
<circle cx="725.719" cy="499.344" r="5.870"/>
<circle cx="720.543" cy="518.662" r="5.741"/>
<circle cx="715.367" cy="537.981" r="6.201"/>
<circle cx="710.190" cy="557.300" r="9.454"/>
<circle cx="705.014" cy="576.618" r="9.321"/>
<circle cx="699.837" cy="595.937" r="7.994"/>
<circle cx="694.661" cy="615.255" r="8.210"/>
<circle cx="689.485" cy="634.574" r="6.778"/>
<circle cx="684.308" cy="653.892" r="9.791"/>
<circle cx="679.132" cy="673.211" r="7.805"/>
<circle cx="673.956" cy="692.529" r="5.870"/>
<circle cx="668.779" cy="711.848" r="5.870"/>
<circle cx="663.603" cy="731.166" r="6.241"/>
<circle cx="658.426" cy="750.485" r="6.704"/>
<circle cx="653.250" cy="769.803" r="8.057"/>
<circle cx="648.074" cy="789.122" r="9.663"/>
<circle cx="642.897" cy="808.440" r="10.018"/>
<circle cx="637.721" cy="827.759" r="6.741"/>
<circle cx="632.545" cy="847.077" r="7.136"/>
<circle cx="627.368" cy="866.396" r="10.191"/>
<circle cx="622.192" cy="885.714" r="9.213"/>
<circle cx="617.015" cy="905.033" r="7.031"/>
<circle cx="611.839" cy="924.351" r="8.826"/>
<circle cx="606.663" cy="943.670" r="9.401"/>
<circle cx="601.486" cy="962.988" r="9.740"/>
<circle cx="596.310" cy="982.307" r="5.240"/>
<circle cx="591.133" cy="1001.625" r="4.579"/>
<circle cx="585.957" cy="1020.944" r="5.996"/>
<circle cx="580.781" cy="1040.262" r="7.773"/>
<circle cx="575.604" cy="1059.581" r="9.893"/>
<circle cx="570.428" cy="1078.899" r="11.038"/>
<circle cx="565.252" cy="1098.218" r="11.195"/>
<circle cx="560.075" cy="1117.537" r="11.173"/>
<circle cx="554.899" cy="1136.855" r="10.901"/>
<circle cx="549.722" cy="1156.174" r="9.918"/>
<circle cx="544.546" cy="1175.492" r="8.826"/>
<circle cx="539.370" cy="1194.811" r="7.932"/>
<circle cx="534.193" cy="1214.129" r="7.869"/>
<circle cx="529.017" cy="1233.448" r="7.837"/>
<circle cx="523.841" cy="1252.766" r="7.031"/>
<circle cx="518.664" cy="1272.085" r="5.912"/>
<circle cx="513.488" cy="1291.403" r="5.193"/>
<circle cx="508.311" cy="1310.722" r="5.193"/>
<circle cx="503.135" cy="1330.040" r="5.428"/>
<circle cx="497.959" cy="1349.359" r="6.666"/>
<circle cx="827.860" cy="195.424" r="4.298"/>
<circle cx="822.684" cy="214.743" r="4.469"/>
<circle cx="817.507" cy="234.061" r="4.240"/>
<circle cx="812.331" cy="253.380" r="4.413"/>
<circle cx="807.154" cy="272.698" r="4.298"/>
<circle cx="801.978" cy="292.017" r="4.946"/>
<circle cx="796.802" cy="311.335" r="6.241"/>
<circle cx="791.625" cy="330.654" r="7.900"/>
<circle cx="786.449" cy="349.972" r="9.077"/>
<circle cx="781.273" cy="369.291" r="8.683"/>
<circle cx="776.096" cy="388.609" r="6.281"/>
<circle cx="770.920" cy="407.928" r="5.996"/>
<circle cx="765.743" cy="427.246" r="6.079"/>
<circle cx="760.567" cy="446.565" r="6.079"/>
<circle cx="755.391" cy="465.883" r="6.119"/>
<circle cx="750.214" cy="485.202" r="6.281"/>
<circle cx="745.038" cy="504.520" r="6.320"/>
<circle cx="739.861" cy="523.839" r="6.320"/>
<circle cx="734.685" cy="543.157" r="7.805"/>
<circle cx="729.509" cy="562.476" r="10.337"/>
<circle cx="724.332" cy="581.794" r="7.578"/>
<circle cx="719.156" cy="601.113" r="7.643"/>
<circle cx="713.980" cy="620.431" r="6.995"/>
<circle cx="708.803" cy="639.750" r="8.331"/>
<circle cx="703.627" cy="659.068" r="10.142"/>
<circle cx="698.450" cy="678.387" r="7.708"/>
<circle cx="693.274" cy="697.706" r="6.160"/>
<circle cx="688.098" cy="717.024" r="5.381"/>
<circle cx="682.921" cy="736.343" r="5.381"/>
<circle cx="677.745" cy="755.661" r="5.609"/>
<circle cx="672.569" cy="774.980" r="6.360"/>
<circle cx="667.392" cy="794.298" r="8.241"/>
<circle cx="662.216" cy="813.617" r="7.377"/>
<circle cx="657.039" cy="832.935" r="6.515"/>
<circle cx="651.863" cy="852.254" r="8.026"/>
<circle cx="646.687" cy="871.572" r="10.924"/>
<circle cx="641.510" cy="890.891" r="9.559"/>
<circle cx="636.334" cy="910.209" r="9.454"/>
<circle cx="631.157" cy="929.528" r="10.457"/>
<circle cx="625.981" cy="948.846" r="10.289"/>
<circle cx="620.805" cy="968.165" r="7.411"/>
<circle cx="615.628" cy="987.483" r="5.144"/>
<circle cx="610.452" cy="1006.802" r="4.997"/>
<circle cx="605.276" cy="1026.120" r="5.996"/>
<circle cx="600.099" cy="1045.439" r="8.088"/>
<circle cx="594.923" cy="1064.757" r="10.433"/>
<circle cx="589.746" cy="1084.076" r="11.060"/>
<circle cx="584.570" cy="1103.394" r="11.105"/>
<circle cx="579.394" cy="1122.713" r="11.128"/>
<circle cx="574.217" cy="1142.031" r="11.060"/>
<circle cx="569.041" cy="1161.350" r="10.409"/>
<circle cx="563.865" cy="1180.668" r="9.240"/>
<circle cx="558.688" cy="1199.987" r="7.900"/>
<circle cx="553.512" cy="1219.305" r="7.511"/>
<circle cx="548.335" cy="1238.624" r="7.343"/>
<circle cx="543.159" cy="1257.943" r="6.959"/>
<circle cx="537.983" cy="1277.261" r="6.320"/>
<circle cx="532.806" cy="1296.580" r="5.609"/>
<circle cx="527.630" cy="1315.898" r="5.428"/>
<circle cx="522.453" cy="1335.217" r="5.288"/>
<circle cx="842.002" cy="219.919" r="4.120"/>
<circle cx="836.826" cy="239.238" r="4.240"/>
<circle cx="831.649" cy="258.556" r="4.525"/>
<circle cx="826.473" cy="277.875" r="4.579"/>
<circle cx="821.297" cy="297.193" r="5.653"/>
<circle cx="816.120" cy="316.512" r="6.851"/>
<circle cx="810.944" cy="335.830" r="7.837"/>
<circle cx="805.767" cy="355.149" r="8.769"/>
<circle cx="800.591" cy="374.467" r="7.741"/>
<circle cx="795.415" cy="393.786" r="6.360"/>
<circle cx="790.238" cy="413.104" r="6.160"/>
<circle cx="785.062" cy="432.423" r="6.119"/>
<circle cx="779.886" cy="451.741" r="6.360"/>
<circle cx="774.709" cy="471.060" r="6.666"/>
<circle cx="769.533" cy="490.378" r="6.704"/>
<circle cx="764.356" cy="509.697" r="6.741"/>
<circle cx="759.180" cy="529.015" r="6.814"/>
<circle cx="754.004" cy="548.334" r="9.213"/>
<circle cx="748.827" cy="567.652" r="9.611"/>
<circle cx="743.651" cy="586.971" r="6.079"/>
<circle cx="738.474" cy="606.289" r="7.932"/>
<circle cx="733.298" cy="625.608" r="7.101"/>
<circle cx="728.122" cy="644.926" r="9.533"/>
<circle cx="722.945" cy="664.245" r="10.947"/>
<circle cx="717.769" cy="683.563" r="8.149"/>
<circle cx="712.593" cy="702.882" r="6.320"/>
<circle cx="707.416" cy="722.200" r="5.240"/>
<circle cx="702.240" cy="741.519" r="5.095"/>
<circle cx="697.063" cy="760.837" r="4.946"/>
<circle cx="691.887" cy="780.156" r="5.697"/>
<circle cx="686.711" cy="799.474" r="6.704"/>
<circle cx="681.534" cy="818.793" r="6.476"/>
<circle cx="676.358" cy="838.112" r="6.851"/>
<circle cx="671.182" cy="857.430" r="8.026"/>
<circle cx="666.005" cy="876.749" r="11.038"/>
<circle cx="660.829" cy="896.067" r="10.763"/>
<circle cx="655.652" cy="915.386" r="10.693"/>
<circle cx="650.476" cy="934.704" r="10.528"/>
<circle cx="645.300" cy="954.023" r="8.088"/>
<circle cx="640.123" cy="973.341" r="6.666"/>
<circle cx="634.947" cy="992.660" r="5.954"/>
<circle cx="629.770" cy="1011.978" r="5.954"/>
<circle cx="624.594" cy="1031.297" r="6.201"/>
<circle cx="619.418" cy="1050.615" r="8.740"/>
<circle cx="614.241" cy="1069.934" r="10.763"/>
<circle cx="609.065" cy="1089.252" r="10.970"/>
<circle cx="603.889" cy="1108.571" r="11.015"/>
<circle cx="598.712" cy="1127.889" r="11.060"/>
<circle cx="593.536" cy="1147.208" r="11.015"/>
<circle cx="588.359" cy="1166.526" r="10.385"/>
<circle cx="583.183" cy="1185.845" r="9.427"/>
<circle cx="578.007" cy="1205.163" r="8.118"/>
<circle cx="572.830" cy="1224.482" r="7.343"/>
<circle cx="567.654" cy="1243.800" r="7.377"/>
<circle cx="562.478" cy="1263.119" r="6.851"/>
<circle cx="557.301" cy="1282.437" r="6.281"/>
<circle cx="552.125" cy="1301.756" r="5.609"/>
<circle cx="546.948" cy="1321.074" r="5.428"/>
<circle cx="541.772" cy="1340.393" r="5.741"/>
<circle cx="856.144" cy="244.414" r="4.120"/>
<circle cx="850.968" cy="263.732" r="4.634"/>
<circle cx="840.615" cy="302.369" r="4.740"/>
<circle cx="835.439" cy="321.688" r="5.288"/>
<circle cx="830.262" cy="341.006" r="5.288"/>
<circle cx="825.086" cy="360.325" r="7.101"/>
<circle cx="819.910" cy="379.644" r="5.784"/>
<circle cx="814.733" cy="398.962" r="5.784"/>
<circle cx="809.557" cy="418.281" r="6.201"/>
<circle cx="804.380" cy="437.599" r="6.281"/>
<circle cx="799.204" cy="456.918" r="6.591"/>
<circle cx="794.028" cy="476.236" r="6.995"/>
<circle cx="788.851" cy="495.555" r="7.101"/>
<circle cx="783.675" cy="514.873" r="7.101"/>
<circle cx="778.499" cy="534.192" r="7.171"/>
<circle cx="773.322" cy="553.510" r="9.663"/>
<circle cx="768.146" cy="572.829" r="9.022"/>
<circle cx="762.969" cy="592.147" r="6.553"/>
<circle cx="757.793" cy="611.466" r="8.479"/>
<circle cx="752.617" cy="630.784" r="8.479"/>
<circle cx="747.440" cy="650.103" r="10.481"/>
<circle cx="742.264" cy="669.421" r="10.855"/>
<circle cx="737.087" cy="688.740" r="8.391"/>
<circle cx="731.911" cy="708.058" r="6.079"/>
<circle cx="726.735" cy="727.377" r="5.381"/>
<circle cx="721.558" cy="746.695" r="5.046"/>
<circle cx="716.382" cy="766.014" r="4.687"/>
<circle cx="711.206" cy="785.332" r="5.193"/>
<circle cx="706.029" cy="804.651" r="6.476"/>
<circle cx="700.853" cy="823.969" r="7.171"/>
<circle cx="695.676" cy="843.288" r="7.241"/>
<circle cx="690.500" cy="862.606" r="7.869"/>
<circle cx="685.324" cy="881.925" r="10.901"/>
<circle cx="680.147" cy="901.243" r="10.599"/>
<circle cx="674.971" cy="920.562" r="9.689"/>
<circle cx="669.795" cy="939.880" r="7.869"/>
<circle cx="664.618" cy="959.199" r="7.031"/>
<circle cx="659.442" cy="978.518" r="6.666"/>
<circle cx="654.265" cy="997.836" r="6.241"/>
<circle cx="649.089" cy="1017.155" r="6.360"/>
<circle cx="643.913" cy="1036.473" r="7.478"/>
<circle cx="638.736" cy="1055.792" r="9.842"/>
<circle cx="633.560" cy="1075.110" r="10.832"/>
<circle cx="628.383" cy="1094.429" r="10.947"/>
<circle cx="623.207" cy="1113.747" r="10.947"/>
<circle cx="618.031" cy="1133.066" r="11.015"/>
<circle cx="612.854" cy="1152.384" r="10.947"/>
<circle cx="607.678" cy="1171.703" r="10.166"/>
<circle cx="602.502" cy="1191.021" r="9.186"/>
<circle cx="597.325" cy="1210.340" r="7.932"/>
<circle cx="592.149" cy="1229.658" r="7.136"/>
<circle cx="586.972" cy="1248.977" r="7.206"/>
<circle cx="581.796" cy="1268.295" r="7.066"/>
<circle cx="576.620" cy="1287.614" r="6.476"/>
<circle cx="571.443" cy="1306.932" r="5.741"/>
<circle cx="566.267" cy="1326.251" r="5.473"/>
<circle cx="561.091" cy="1345.569" r="6.281"/>
<circle cx="870.286" cy="268.909" r="4.298"/>
<circle cx="849.581" cy="346.183" r="4.120"/>
<circle cx="844.404" cy="365.501" r="5.912"/>
<circle cx="839.228" cy="384.820" r="4.946"/>
<circle cx="834.052" cy="404.138" r="5.381"/>
<circle cx="828.875" cy="423.457" r="5.870"/>
<circle cx="823.699" cy="442.775" r="6.360"/>
<circle cx="818.523" cy="462.094" r="6.851"/>
<circle cx="813.346" cy="481.412" r="7.309"/>
<circle cx="808.170" cy="500.731" r="7.545"/>
<circle cx="802.993" cy="520.050" r="7.578"/>
<circle cx="797.817" cy="539.368" r="7.676"/>
<circle cx="792.641" cy="558.687" r="9.267"/>
<circle cx="787.464" cy="578.005" r="9.480"/>
<circle cx="782.288" cy="597.324" r="8.026"/>
<circle cx="777.112" cy="616.642" r="9.159"/>
<circle cx="771.935" cy="635.961" r="9.817"/>
<circle cx="766.759" cy="655.279" r="10.832"/>
<circle cx="761.582" cy="674.598" r="10.992"/>
<circle cx="756.406" cy="693.916" r="8.057"/>
<circle cx="751.230" cy="713.235" r="5.741"/>
<circle cx="746.053" cy="732.553" r="5.697"/>
<circle cx="740.877" cy="751.872" r="5.609"/>
<circle cx="735.700" cy="771.190" r="5.193"/>
<circle cx="730.524" cy="790.509" r="5.381"/>
<circle cx="725.348" cy="809.827" r="6.399"/>
<circle cx="720.171" cy="829.146" r="8.057"/>
<circle cx="714.995" cy="848.464" r="7.545"/>
<circle cx="709.819" cy="867.783" r="7.343"/>
<circle cx="704.642" cy="887.101" r="8.769"/>
<circle cx="699.466" cy="906.420" r="7.101"/>
<circle cx="694.289" cy="925.738" r="6.591"/>
<circle cx="689.113" cy="945.057" r="6.995"/>
<circle cx="683.937" cy="964.375" r="7.101"/>
<circle cx="678.760" cy="983.694" r="6.923"/>
<circle cx="673.584" cy="1003.012" r="6.995"/>
<circle cx="668.408" cy="1022.331" r="7.643"/>
<circle cx="663.231" cy="1041.649" r="8.966"/>
<circle cx="658.055" cy="1060.968" r="10.481"/>
<circle cx="652.878" cy="1080.286" r="10.832"/>
<circle cx="647.702" cy="1099.605" r="10.878"/>
<circle cx="642.526" cy="1118.924" r="10.924"/>
<circle cx="637.349" cy="1138.242" r="10.947"/>
<circle cx="632.173" cy="1157.561" r="10.786"/>
<circle cx="626.996" cy="1176.879" r="9.867"/>
<circle cx="621.820" cy="1196.198" r="8.740"/>
<circle cx="616.644" cy="1215.516" r="7.643"/>
<circle cx="611.467" cy="1234.835" r="7.031"/>
<circle cx="606.291" cy="1254.153" r="6.923"/>
<circle cx="601.115" cy="1273.472" r="6.923"/>
<circle cx="595.938" cy="1292.790" r="6.629"/>
<circle cx="590.762" cy="1312.109" r="5.954"/>
<circle cx="585.585" cy="1331.427" r="5.653"/>
<circle cx="580.409" cy="1350.746" r="6.704"/>
<circle cx="889.605" cy="274.085" r="4.469"/>
<circle cx="884.429" cy="293.404" r="4.180"/>
<circle cx="879.252" cy="312.722" r="4.240"/>
<circle cx="874.076" cy="332.041" r="4.525"/>
<circle cx="868.899" cy="351.359" r="4.413"/>
<circle cx="863.723" cy="370.678" r="5.784"/>
<circle cx="858.547" cy="389.996" r="5.240"/>
<circle cx="853.370" cy="409.315" r="5.827"/>
<circle cx="848.194" cy="428.633" r="5.784"/>
<circle cx="843.017" cy="447.952" r="5.912"/>
<circle cx="837.841" cy="467.270" r="6.320"/>
<circle cx="832.665" cy="486.589" r="7.171"/>
<circle cx="827.488" cy="505.907" r="7.643"/>
<circle cx="822.312" cy="525.226" r="8.026"/>
<circle cx="817.136" cy="544.544" r="8.331"/>
<circle cx="811.959" cy="563.863" r="8.769"/>
<circle cx="806.783" cy="583.181" r="10.361"/>
<circle cx="801.606" cy="602.500" r="9.401"/>
<circle cx="796.430" cy="621.818" r="9.714"/>
<circle cx="791.254" cy="641.137" r="10.068"/>
<circle cx="786.077" cy="660.455" r="10.646"/>
<circle cx="780.901" cy="679.774" r="10.740"/>
<circle cx="775.725" cy="699.093" r="7.171"/>
<circle cx="770.548" cy="718.411" r="5.870"/>
<circle cx="765.372" cy="737.730" r="6.160"/>
<circle cx="760.195" cy="757.048" r="6.438"/>
<circle cx="755.019" cy="776.367" r="6.320"/>
<circle cx="749.843" cy="795.685" r="6.119"/>
<circle cx="744.666" cy="815.004" r="6.959"/>
<circle cx="739.490" cy="834.322" r="8.301"/>
<circle cx="734.313" cy="853.641" r="7.773"/>
<circle cx="729.137" cy="872.959" r="6.923"/>
<circle cx="723.961" cy="892.278" r="6.741"/>
<circle cx="718.784" cy="911.596" r="6.399"/>
<circle cx="713.608" cy="930.915" r="6.704"/>
<circle cx="708.432" cy="950.233" r="7.101"/>
<circle cx="703.255" cy="969.552" r="7.343"/>
<circle cx="698.079" cy="988.870" r="7.578"/>
<circle cx="692.902" cy="1008.189" r="8.118"/>
<circle cx="687.726" cy="1027.507" r="9.077"/>
<circle cx="682.550" cy="1046.826" r="10.117"/>
<circle cx="677.373" cy="1066.144" r="10.809"/>
<circle cx="672.197" cy="1085.463" r="10.855"/>
<circle cx="667.021" cy="1104.781" r="10.855"/>
<circle cx="661.844" cy="1124.100" r="10.924"/>
<circle cx="656.668" cy="1143.418" r="10.924"/>
<circle cx="651.491" cy="1162.737" r="10.623"/>
<circle cx="646.315" cy="1182.055" r="9.348"/>
<circle cx="641.139" cy="1201.374" r="8.210"/>
<circle cx="635.962" cy="1220.692" r="7.171"/>
<circle cx="630.786" cy="1240.011" r="6.851"/>
<circle cx="625.609" cy="1259.330" r="6.778"/>
<circle cx="620.433" cy="1278.648" r="6.741"/>
<circle cx="615.257" cy="1297.967" r="6.399"/>
<circle cx="610.080" cy="1317.285" r="6.119"/>
<circle cx="604.904" cy="1336.604" r="5.784"/>
<circle cx="914.100" cy="259.943" r="4.356"/>
<circle cx="908.923" cy="279.262" r="4.059"/>
<circle cx="898.571" cy="317.899" r="4.997"/>
<circle cx="893.394" cy="337.217" r="5.335"/>
<circle cx="888.218" cy="356.536" r="4.634"/>
<circle cx="883.042" cy="375.854" r="6.037"/>
<circle cx="877.865" cy="395.173" r="7.773"/>
<circle cx="872.689" cy="414.491" r="7.545"/>
<circle cx="867.512" cy="433.810" r="6.438"/>
<circle cx="862.336" cy="453.128" r="5.827"/>
<circle cx="857.160" cy="472.447" r="6.201"/>
<circle cx="851.983" cy="491.765" r="6.887"/>
<circle cx="846.807" cy="511.084" r="7.741"/>
<circle cx="841.630" cy="530.402" r="8.241"/>
<circle cx="836.454" cy="549.721" r="8.625"/>
<circle cx="831.278" cy="569.039" r="9.213"/>
<circle cx="826.101" cy="588.358" r="10.191"/>
<circle cx="820.925" cy="607.676" r="10.240"/>
<circle cx="815.749" cy="626.995" r="10.191"/>
<circle cx="810.572" cy="646.313" r="10.117"/>
<circle cx="805.396" cy="665.632" r="9.533"/>
<circle cx="800.219" cy="684.950" r="8.420"/>
<circle cx="795.043" cy="704.269" r="6.778"/>
<circle cx="789.867" cy="723.587" r="6.360"/>
<circle cx="784.690" cy="742.906" r="6.704"/>
<circle cx="779.514" cy="762.224" r="7.377"/>
<circle cx="774.338" cy="781.543" r="7.478"/>
<circle cx="769.161" cy="800.861" r="7.411"/>
<circle cx="763.985" cy="820.180" r="7.963"/>
<circle cx="758.808" cy="839.499" r="8.479"/>
<circle cx="753.632" cy="858.817" r="8.301"/>
<circle cx="748.456" cy="878.136" r="7.377"/>
<circle cx="743.279" cy="897.454" r="6.887"/>
<circle cx="738.103" cy="916.773" r="6.851"/>
<circle cx="732.926" cy="936.091" r="7.101"/>
<circle cx="727.750" cy="955.410" r="7.478"/>
<circle cx="722.574" cy="974.728" r="7.932"/>
<circle cx="717.397" cy="994.047" r="8.391"/>
<circle cx="712.221" cy="1013.365" r="9.240"/>
<circle cx="707.045" cy="1032.684" r="10.142"/>
<circle cx="701.868" cy="1052.002" r="10.693"/>
<circle cx="696.692" cy="1071.321" r="10.832"/>
<circle cx="691.515" cy="1090.639" r="10.855"/>
<circle cx="686.339" cy="1109.958" r="10.901"/>
<circle cx="681.163" cy="1129.276" r="10.947"/>
<circle cx="675.986" cy="1148.595" r="10.901"/>
<circle cx="670.810" cy="1167.913" r="10.166"/>
<circle cx="665.634" cy="1187.232" r="8.596"/>
<circle cx="660.457" cy="1206.550" r="7.377"/>
<circle cx="655.281" cy="1225.869" r="6.741"/>
<circle cx="650.104" cy="1245.187" r="6.553"/>
<circle cx="644.928" cy="1264.506" r="6.553"/>
<circle cx="639.752" cy="1283.824" r="6.360"/>
<circle cx="634.575" cy="1303.143" r="6.079"/>
<circle cx="629.399" cy="1322.461" r="5.954"/>
<circle cx="624.222" cy="1341.780" r="6.119"/>
<circle cx="933.418" cy="265.119" r="4.525"/>
<circle cx="923.066" cy="303.756" r="4.240"/>
<circle cx="917.889" cy="323.075" r="5.741"/>
<circle cx="912.713" cy="342.393" r="6.320"/>
<circle cx="907.536" cy="361.712" r="5.288"/>
<circle cx="902.360" cy="381.031" r="6.553"/>
<circle cx="897.184" cy="400.349" r="7.773"/>
<circle cx="892.007" cy="419.668" r="8.625"/>
<circle cx="886.831" cy="438.986" r="7.932"/>
<circle cx="881.654" cy="458.305" r="7.643"/>
<circle cx="876.478" cy="477.623" r="7.309"/>
<circle cx="871.302" cy="496.942" r="7.101"/>
<circle cx="866.125" cy="516.260" r="8.479"/>
<circle cx="860.949" cy="535.579" r="8.740"/>
<circle cx="855.773" cy="554.897" r="9.077"/>
<circle cx="850.596" cy="574.216" r="9.585"/>
<circle cx="845.420" cy="593.534" r="10.018"/>
<circle cx="840.243" cy="612.853" r="10.409"/>
<circle cx="835.067" cy="632.171" r="10.385"/>
<circle cx="829.891" cy="651.490" r="10.117"/>
<circle cx="824.714" cy="670.808" r="8.271"/>
<circle cx="819.538" cy="690.127" r="7.478"/>
<circle cx="814.362" cy="709.445" r="7.031"/>
<circle cx="809.185" cy="728.764" r="7.171"/>
<circle cx="804.009" cy="748.082" r="7.676"/>
<circle cx="798.832" cy="767.401" r="8.241"/>
<circle cx="793.656" cy="786.719" r="8.538"/>
<circle cx="788.480" cy="806.038" r="8.769"/>
<circle cx="783.303" cy="825.356" r="9.213"/>
<circle cx="778.127" cy="844.675" r="9.321"/>
<circle cx="772.950" cy="863.993" r="8.882"/>
<circle cx="767.774" cy="883.312" r="8.118"/>
<circle cx="762.598" cy="902.630" r="7.708"/>
<circle cx="757.421" cy="921.949" r="7.708"/>
<circle cx="752.245" cy="941.267" r="7.869"/>
<circle cx="747.069" cy="960.586" r="8.271"/>
<circle cx="741.892" cy="979.905" r="8.683"/>
<circle cx="736.716" cy="999.223" r="9.186"/>
<circle cx="731.539" cy="1018.542" r="10.018"/>
<circle cx="726.363" cy="1037.860" r="10.670"/>
<circle cx="721.187" cy="1057.179" r="10.809"/>
<circle cx="716.010" cy="1076.497" r="10.809"/>
<circle cx="710.834" cy="1095.816" r="10.832"/>
<circle cx="705.658" cy="1115.134" r="10.878"/>
<circle cx="700.481" cy="1134.453" r="10.832"/>
<circle cx="695.305" cy="1153.771" r="10.361"/>
<circle cx="690.128" cy="1173.090" r="8.966"/>
<circle cx="684.952" cy="1192.408" r="7.708"/>
<circle cx="679.776" cy="1211.727" r="6.741"/>
<circle cx="674.599" cy="1231.045" r="6.591"/>
<circle cx="669.423" cy="1250.364" r="6.476"/>
<circle cx="664.247" cy="1269.682" r="6.360"/>
<circle cx="659.070" cy="1289.001" r="5.954"/>
<circle cx="653.894" cy="1308.319" r="5.912"/>
<circle cx="648.717" cy="1327.638" r="5.784"/>
<circle cx="643.541" cy="1346.956" r="6.591"/>
<circle cx="952.737" cy="270.296" r="4.240"/>
<circle cx="942.384" cy="308.933" r="4.413"/>
<circle cx="937.208" cy="328.251" r="6.438"/>
<circle cx="932.031" cy="347.570" r="6.201"/>
<circle cx="926.855" cy="366.888" r="6.201"/>
<circle cx="921.679" cy="386.207" r="6.851"/>
<circle cx="916.502" cy="405.525" r="6.741"/>
<circle cx="911.326" cy="424.844" r="7.708"/>
<circle cx="906.149" cy="444.162" r="8.910"/>
<circle cx="900.973" cy="463.481" r="9.104"/>
<circle cx="895.797" cy="482.799" r="8.057"/>
<circle cx="890.620" cy="502.118" r="7.545"/>
<circle cx="885.444" cy="521.437" r="8.683"/>
<circle cx="880.267" cy="540.755" r="9.321"/>
<circle cx="875.091" cy="560.074" r="9.401"/>
<circle cx="869.915" cy="579.392" r="9.893"/>
<circle cx="864.738" cy="598.711" r="10.142"/>
<circle cx="859.562" cy="618.029" r="10.289"/>
<circle cx="854.386" cy="637.348" r="10.313"/>
<circle cx="849.209" cy="656.666" r="10.018"/>
<circle cx="844.033" cy="675.985" r="9.104"/>
<circle cx="838.856" cy="695.303" r="8.391"/>
<circle cx="833.680" cy="714.622" r="8.271"/>
<circle cx="828.504" cy="733.940" r="8.509"/>
<circle cx="823.327" cy="753.259" r="8.910"/>
<circle cx="818.151" cy="772.577" r="9.348"/>
<circle cx="812.975" cy="791.896" r="9.585"/>
<circle cx="807.798" cy="811.214" r="9.817"/>
<circle cx="802.622" cy="830.533" r="9.943"/>
<circle cx="797.445" cy="849.851" r="9.766"/>
<circle cx="792.269" cy="869.170" r="9.186"/>
<circle cx="787.093" cy="888.488" r="8.596"/>
<circle cx="781.916" cy="907.807" r="8.271"/>
<circle cx="776.740" cy="927.125" r="8.301"/>
<circle cx="771.563" cy="946.444" r="8.538"/>
<circle cx="766.387" cy="965.762" r="8.994"/>
<circle cx="761.211" cy="985.081" r="9.480"/>
<circle cx="756.034" cy="1004.399" r="9.943"/>
<circle cx="750.858" cy="1023.718" r="10.481"/>
<circle cx="745.682" cy="1043.036" r="10.763"/>
<circle cx="740.505" cy="1062.355" r="10.740"/>
<circle cx="735.329" cy="1081.673" r="10.763"/>
<circle cx="730.152" cy="1100.992" r="10.786"/>
<circle cx="724.976" cy="1120.311" r="10.599"/>
<circle cx="719.800" cy="1139.629" r="10.043"/>
<circle cx="714.623" cy="1158.948" r="9.077"/>
<circle cx="709.447" cy="1178.266" r="8.088"/>
<circle cx="704.271" cy="1197.585" r="7.343"/>
<circle cx="699.094" cy="1216.903" r="6.778"/>
<circle cx="693.918" cy="1236.222" r="6.591"/>
<circle cx="688.741" cy="1255.540" r="6.399"/>
<circle cx="683.565" cy="1274.859" r="6.160"/>
<circle cx="678.389" cy="1294.177" r="5.912"/>
<circle cx="673.212" cy="1313.496" r="5.827"/>
<circle cx="668.036" cy="1332.814" r="5.741"/>
<circle cx="662.859" cy="1352.133" r="6.741"/>
<circle cx="972.055" cy="275.472" r="4.180"/>
<circle cx="966.879" cy="294.791" r="4.180"/>
<circle cx="961.703" cy="314.109" r="4.298"/>
<circle cx="956.526" cy="333.428" r="5.870"/>
<circle cx="951.350" cy="352.746" r="6.320"/>
<circle cx="946.173" cy="372.065" r="6.887"/>
<circle cx="940.997" cy="391.383" r="5.827"/>
<circle cx="935.821" cy="410.702" r="6.241"/>
<circle cx="930.644" cy="430.020" r="8.683"/>
<circle cx="925.468" cy="449.339" r="9.893"/>
<circle cx="920.292" cy="468.657" r="9.559"/>
<circle cx="915.115" cy="487.976" r="8.479"/>
<circle cx="909.939" cy="507.294" r="8.118"/>
<circle cx="904.762" cy="526.613" r="9.480"/>
<circle cx="899.586" cy="545.931" r="9.559"/>
<circle cx="894.410" cy="565.250" r="9.740"/>
<circle cx="889.233" cy="584.568" r="10.068"/>
<circle cx="884.057" cy="603.887" r="10.018"/>
<circle cx="878.880" cy="623.205" r="10.018"/>
<circle cx="873.704" cy="642.524" r="10.117"/>
<circle cx="868.528" cy="661.843" r="10.043"/>
<circle cx="863.351" cy="681.161" r="9.689"/>
<circle cx="858.175" cy="700.480" r="9.533"/>
<circle cx="852.999" cy="719.798" r="9.585"/>
<circle cx="847.822" cy="739.117" r="9.842"/>
<circle cx="842.646" cy="758.435" r="10.043"/>
<circle cx="837.469" cy="777.754" r="10.289"/>
<circle cx="832.293" cy="797.072" r="10.481"/>
<circle cx="827.117" cy="816.391" r="10.433"/>
<circle cx="821.940" cy="835.709" r="10.264"/>
<circle cx="816.764" cy="855.028" r="9.968"/>
<circle cx="811.588" cy="874.346" r="9.507"/>
<circle cx="806.411" cy="893.665" r="9.132"/>
<circle cx="801.235" cy="912.983" r="8.712"/>
<circle cx="796.058" cy="932.302" r="8.797"/>
<circle cx="790.882" cy="951.620" r="9.159"/>
<circle cx="785.706" cy="970.939" r="9.611"/>
<circle cx="780.529" cy="990.257" r="10.043"/>
<circle cx="775.353" cy="1009.576" r="10.433"/>
<circle cx="770.176" cy="1028.894" r="10.670"/>
<circle cx="765.000" cy="1048.213" r="10.716"/>
<circle cx="759.824" cy="1067.531" r="10.693"/>
<circle cx="754.647" cy="1086.850" r="10.623"/>
<circle cx="749.471" cy="1106.168" r="10.264"/>
<circle cx="744.295" cy="1125.487" r="9.559"/>
<circle cx="739.118" cy="1144.805" r="8.769"/>
<circle cx="733.942" cy="1164.124" r="8.149"/>
<circle cx="728.765" cy="1183.442" r="7.578"/>
<circle cx="723.589" cy="1202.761" r="7.031"/>
<circle cx="718.413" cy="1222.079" r="6.666"/>
<circle cx="713.236" cy="1241.398" r="6.438"/>
<circle cx="708.060" cy="1260.717" r="6.360"/>
<circle cx="702.884" cy="1280.035" r="6.079"/>
<circle cx="697.707" cy="1299.354" r="5.870"/>
<circle cx="692.531" cy="1318.672" r="5.784"/>
<circle cx="687.354" cy="1337.991" r="5.784"/>
<circle cx="991.374" cy="280.649" r="4.298"/>
<circle cx="986.197" cy="299.967" r="4.579"/>
<circle cx="981.021" cy="319.286" r="4.740"/>
<circle cx="975.845" cy="338.604" r="5.095"/>
<circle cx="970.668" cy="357.923" r="6.438"/>
<circle cx="965.492" cy="377.241" r="6.591"/>
<circle cx="960.316" cy="396.560" r="6.515"/>
<circle cx="955.139" cy="415.878" r="7.445"/>
<circle cx="949.963" cy="435.197" r="8.625"/>
<circle cx="944.786" cy="454.515" r="9.321"/>
<circle cx="939.610" cy="473.834" r="9.791"/>
<circle cx="934.434" cy="493.152" r="9.637"/>
<circle cx="929.257" cy="512.471" r="9.585"/>
<circle cx="924.081" cy="531.789" r="9.533"/>
<circle cx="918.905" cy="551.108" r="9.663"/>
<circle cx="913.728" cy="570.426" r="9.427"/>
<circle cx="908.552" cy="589.745" r="9.842"/>
<circle cx="903.375" cy="609.063" r="9.267"/>
<circle cx="898.199" cy="628.382" r="9.240"/>
<circle cx="893.023" cy="647.700" r="9.507"/>
<circle cx="887.846" cy="667.019" r="9.533"/>
<circle cx="882.670" cy="686.337" r="9.663"/>
<circle cx="877.493" cy="705.656" r="9.867"/>
<circle cx="872.317" cy="724.974" r="10.191"/>
<circle cx="867.141" cy="744.293" r="10.505"/>
<circle cx="861.964" cy="763.611" r="10.740"/>
<circle cx="856.788" cy="782.930" r="10.878"/>
<circle cx="851.612" cy="802.249" r="10.878"/>
<circle cx="846.435" cy="821.567" r="10.809"/>
<circle cx="841.259" cy="840.886" r="10.646"/>
<circle cx="836.082" cy="860.204" r="10.361"/>
<circle cx="830.906" cy="879.523" r="9.943"/>
<circle cx="825.730" cy="898.841" r="9.791"/>
<circle cx="820.553" cy="918.160" r="9.585"/>
<circle cx="815.377" cy="937.478" r="9.714"/>
<circle cx="810.201" cy="956.797" r="9.943"/>
<circle cx="805.024" cy="976.115" r="10.191"/>
<circle cx="799.848" cy="995.434" r="10.481"/>
<circle cx="794.671" cy="1014.752" r="10.623"/>
<circle cx="789.495" cy="1034.071" r="10.670"/>
<circle cx="784.319" cy="1053.389" r="10.646"/>
<circle cx="779.142" cy="1072.708" r="10.552"/>
<circle cx="773.966" cy="1092.026" r="10.043"/>
<circle cx="768.789" cy="1111.345" r="9.267"/>
<circle cx="763.613" cy="1130.663" r="8.391"/>
<circle cx="758.437" cy="1149.982" r="7.741"/>
<circle cx="753.260" cy="1169.300" r="7.411"/>
<circle cx="748.084" cy="1188.619" r="7.031"/>
<circle cx="742.908" cy="1207.937" r="6.923"/>
<circle cx="737.731" cy="1227.256" r="6.666"/>
<circle cx="732.555" cy="1246.574" r="6.515"/>
<circle cx="727.378" cy="1265.893" r="6.201"/>
<circle cx="722.202" cy="1285.211" r="6.160"/>
<circle cx="717.026" cy="1304.530" r="5.912"/>
<circle cx="711.849" cy="1323.848" r="5.912"/>
<circle cx="706.673" cy="1343.167" r="6.320"/>
<circle cx="1010.692" cy="285.825" r="4.240"/>
<circle cx="1005.516" cy="305.143" r="4.740"/>
<circle cx="1000.340" cy="324.462" r="4.896"/>
<circle cx="995.163" cy="343.780" r="4.946"/>
<circle cx="989.987" cy="363.099" r="6.079"/>
<circle cx="984.810" cy="382.418" r="6.959"/>
<circle cx="979.634" cy="401.736" r="7.545"/>
<circle cx="974.458" cy="421.055" r="7.031"/>
<circle cx="969.281" cy="440.373" r="6.851"/>
<circle cx="964.105" cy="459.692" r="7.343"/>
<circle cx="958.929" cy="479.010" r="9.049"/>
<circle cx="953.752" cy="498.329" r="9.348"/>
<circle cx="948.576" cy="517.647" r="8.740"/>
<circle cx="943.399" cy="536.966" r="8.769"/>
<circle cx="938.223" cy="556.284" r="8.450"/>
<circle cx="933.047" cy="575.603" r="8.910"/>
<circle cx="927.870" cy="594.921" r="10.166"/>
<circle cx="922.694" cy="614.240" r="10.068"/>
<circle cx="917.518" cy="633.558" r="9.401"/>
<circle cx="912.341" cy="652.877" r="9.294"/>
<circle cx="907.165" cy="672.195" r="9.374"/>
<circle cx="901.988" cy="691.514" r="9.559"/>
<circle cx="896.812" cy="710.832" r="9.611"/>
<circle cx="891.636" cy="730.151" r="10.142"/>
<circle cx="886.459" cy="749.469" r="10.481"/>
<circle cx="881.283" cy="768.788" r="10.786"/>
<circle cx="876.106" cy="788.106" r="10.901"/>
<circle cx="870.930" cy="807.425" r="10.878"/>
<circle cx="865.754" cy="826.743" r="10.878"/>
<circle cx="860.577" cy="846.062" r="10.763"/>
<circle cx="855.401" cy="865.380" r="10.623"/>
<circle cx="850.225" cy="884.699" r="10.505"/>
<circle cx="845.048" cy="904.017" r="10.457"/>
<circle cx="839.872" cy="923.336" r="10.433"/>
<circle cx="834.695" cy="942.654" r="10.433"/>
<circle cx="829.519" cy="961.973" r="10.505"/>
<circle cx="824.343" cy="981.292" r="10.693"/>
<circle cx="819.166" cy="1000.610" r="10.646"/>
<circle cx="813.990" cy="1019.929" r="10.646"/>
<circle cx="808.814" cy="1039.247" r="10.599"/>
<circle cx="803.637" cy="1058.566" r="10.481"/>
<circle cx="798.461" cy="1077.884" r="10.043"/>
<circle cx="793.284" cy="1097.203" r="9.022"/>
<circle cx="788.108" cy="1116.521" r="7.963"/>
<circle cx="782.932" cy="1135.840" r="7.206"/>
<circle cx="777.755" cy="1155.158" r="6.887"/>
<circle cx="772.579" cy="1174.477" r="6.851"/>
<circle cx="767.402" cy="1193.795" r="6.741"/>
<circle cx="762.226" cy="1213.114" r="6.704"/>
<circle cx="757.050" cy="1232.432" r="6.591"/>
<circle cx="751.873" cy="1251.751" r="6.320"/>
<circle cx="746.697" cy="1271.069" r="6.320"/>
<circle cx="741.521" cy="1290.388" r="6.281"/>
<circle cx="736.344" cy="1309.706" r="6.160"/>
<circle cx="731.168" cy="1329.025" r="6.079"/>
<circle cx="725.991" cy="1348.343" r="6.887"/>
<circle cx="1024.835" cy="310.320" r="4.946"/>
<circle cx="1019.658" cy="329.638" r="5.240"/>
<circle cx="1014.482" cy="348.957" r="5.428"/>
<circle cx="1009.305" cy="368.275" r="6.399"/>
<circle cx="1004.129" cy="387.594" r="6.704"/>
<circle cx="998.953" cy="406.912" r="6.959"/>
<circle cx="993.776" cy="426.231" r="6.360"/>
<circle cx="988.600" cy="445.549" r="5.609"/>
<circle cx="983.423" cy="464.868" r="6.476"/>
<circle cx="978.247" cy="484.186" r="7.101"/>
<circle cx="973.071" cy="503.505" r="7.932"/>
<circle cx="967.894" cy="522.824" r="7.741"/>
<circle cx="962.718" cy="542.142" r="7.708"/>
<circle cx="957.542" cy="561.461" r="7.478"/>
<circle cx="952.365" cy="580.779" r="7.741"/>
<circle cx="947.189" cy="600.098" r="9.714"/>
<circle cx="942.012" cy="619.416" r="9.968"/>
<circle cx="936.836" cy="638.735" r="10.018"/>
<circle cx="931.660" cy="658.053" r="10.018"/>
<circle cx="926.483" cy="677.372" r="10.240"/>
<circle cx="921.307" cy="696.690" r="10.576"/>
<circle cx="916.131" cy="716.009" r="10.599"/>
<circle cx="910.954" cy="735.327" r="10.740"/>
<circle cx="905.778" cy="754.646" r="10.599"/>
<circle cx="900.601" cy="773.964" r="10.693"/>
<circle cx="895.425" cy="793.283" r="10.670"/>
<circle cx="890.249" cy="812.601" r="10.528"/>
<circle cx="885.072" cy="831.920" r="10.693"/>
<circle cx="879.896" cy="851.238" r="10.992"/>
<circle cx="874.719" cy="870.557" r="10.924"/>
<circle cx="869.543" cy="889.875" r="10.970"/>
<circle cx="864.367" cy="909.194" r="10.901"/>
<circle cx="859.190" cy="928.512" r="10.855"/>
<circle cx="854.014" cy="947.831" r="10.809"/>
<circle cx="848.838" cy="967.149" r="10.763"/>
<circle cx="843.661" cy="986.468" r="10.740"/>
<circle cx="838.485" cy="1005.786" r="10.670"/>
<circle cx="833.308" cy="1025.105" r="10.646"/>
<circle cx="828.132" cy="1044.423" r="10.552"/>
<circle cx="822.956" cy="1063.742" r="10.018"/>
<circle cx="817.779" cy="1083.060" r="9.104"/>
<circle cx="812.603" cy="1102.379" r="8.149"/>
<circle cx="807.427" cy="1121.698" r="7.343"/>
<circle cx="802.250" cy="1141.016" r="6.923"/>
<circle cx="797.074" cy="1160.335" r="6.995"/>
<circle cx="791.897" cy="1179.653" r="6.959"/>
<circle cx="786.721" cy="1198.972" r="6.851"/>
<circle cx="781.545" cy="1218.290" r="7.031"/>
<circle cx="776.368" cy="1237.609" r="7.066"/>
<circle cx="771.192" cy="1256.927" r="7.837"/>
<circle cx="766.015" cy="1276.246" r="8.361"/>
<circle cx="760.839" cy="1295.564" r="8.538"/>
<circle cx="755.663" cy="1314.883" r="8.450"/>
<circle cx="750.486" cy="1334.201" r="8.625"/>
<circle cx="745.310" cy="1353.520" r="8.180"/>
<circle cx="1044.153" cy="315.496" r="4.687"/>
<circle cx="1038.977" cy="334.815" r="5.335"/>
<circle cx="1033.800" cy="354.133" r="6.037"/>
<circle cx="1028.624" cy="373.452" r="6.399"/>
<circle cx="1023.448" cy="392.770" r="6.241"/>
<circle cx="1018.271" cy="412.089" r="5.564"/>
<circle cx="1013.095" cy="431.407" r="5.335"/>
<circle cx="1007.918" cy="450.726" r="5.870"/>
<circle cx="1002.742" cy="470.044" r="7.241"/>
<circle cx="997.566" cy="489.363" r="6.591"/>
<circle cx="992.389" cy="508.681" r="7.101"/>
<circle cx="987.213" cy="528.000" r="8.567"/>
<circle cx="982.036" cy="547.318" r="6.629"/>
<circle cx="976.860" cy="566.637" r="7.773"/>
<circle cx="971.684" cy="585.955" r="8.509"/>
<circle cx="966.507" cy="605.274" r="8.994"/>
<circle cx="961.331" cy="624.592" r="8.910"/>
<circle cx="956.155" cy="643.911" r="9.533"/>
<circle cx="950.978" cy="663.230" r="9.689"/>
<circle cx="945.802" cy="682.548" r="9.637"/>
<circle cx="940.625" cy="701.867" r="10.599"/>
<circle cx="935.449" cy="721.185" r="10.716"/>
<circle cx="930.273" cy="740.504" r="10.337"/>
<circle cx="925.096" cy="759.822" r="10.117"/>
<circle cx="919.920" cy="779.141" r="10.385"/>
<circle cx="914.744" cy="798.459" r="10.215"/>
<circle cx="909.567" cy="817.778" r="9.791"/>
<circle cx="904.391" cy="837.096" r="10.166"/>
<circle cx="899.214" cy="856.415" r="10.924"/>
<circle cx="894.038" cy="875.733" r="10.599"/>
<circle cx="888.862" cy="895.052" r="11.128"/>
<circle cx="883.685" cy="914.370" r="11.150"/>
<circle cx="878.509" cy="933.689" r="11.083"/>
<circle cx="873.332" cy="953.007" r="10.924"/>
<circle cx="868.156" cy="972.326" r="10.832"/>
<circle cx="862.980" cy="991.644" r="10.740"/>
<circle cx="857.803" cy="1010.963" r="10.623"/>
<circle cx="852.627" cy="1030.281" r="10.623"/>
<circle cx="847.451" cy="1049.600" r="10.337"/>
<circle cx="842.274" cy="1068.918" r="9.791"/>
<circle cx="837.098" cy="1088.237" r="8.910"/>
<circle cx="831.921" cy="1107.555" r="8.026"/>
<circle cx="826.745" cy="1126.874" r="7.511"/>
<circle cx="821.569" cy="1146.192" r="7.343"/>
<circle cx="816.392" cy="1165.511" r="7.611"/>
<circle cx="811.216" cy="1184.829" r="8.391"/>
<circle cx="806.040" cy="1204.148" r="9.348"/>
<circle cx="800.863" cy="1223.466" r="9.817"/>
<circle cx="795.687" cy="1242.785" r="10.433"/>
<circle cx="790.510" cy="1262.104" r="11.060"/>
<circle cx="785.334" cy="1281.422" r="11.105"/>
<circle cx="780.158" cy="1300.741" r="11.105"/>
<circle cx="774.981" cy="1320.059" r="11.083"/>
<circle cx="769.805" cy="1339.378" r="10.970"/>
<circle cx="1058.295" cy="339.991" r="5.784"/>
<circle cx="1053.119" cy="359.310" r="6.741"/>
<circle cx="1047.942" cy="378.628" r="6.851"/>
<circle cx="1042.766" cy="397.947" r="7.171"/>
<circle cx="1037.590" cy="417.265" r="7.343"/>
<circle cx="1032.413" cy="436.584" r="7.578"/>
<circle cx="1027.237" cy="455.902" r="8.625"/>
<circle cx="1022.060" cy="475.221" r="8.938"/>
<circle cx="1016.884" cy="494.539" r="7.741"/>
<circle cx="1011.708" cy="513.858" r="6.887"/>
<circle cx="1006.531" cy="533.176" r="8.910"/>
<circle cx="1001.355" cy="552.495" r="7.377"/>
<circle cx="996.179" cy="571.813" r="9.077"/>
<circle cx="991.002" cy="591.132" r="9.213"/>
<circle cx="985.826" cy="610.450" r="8.450"/>
<circle cx="980.649" cy="629.769" r="7.478"/>
<circle cx="975.473" cy="649.087" r="9.427"/>
<circle cx="970.297" cy="668.406" r="9.022"/>
<circle cx="965.120" cy="687.724" r="9.507"/>
<circle cx="959.944" cy="707.043" r="9.993"/>
<circle cx="954.768" cy="726.361" r="9.294"/>
<circle cx="949.591" cy="745.680" r="8.509"/>
<circle cx="944.415" cy="764.998" r="10.068"/>
<circle cx="939.238" cy="784.317" r="10.215"/>
<circle cx="934.062" cy="803.636" r="10.166"/>
<circle cx="928.886" cy="822.954" r="10.786"/>
<circle cx="923.709" cy="842.273" r="10.832"/>
<circle cx="918.533" cy="861.591" r="10.646"/>
<circle cx="913.356" cy="880.910" r="10.599"/>
<circle cx="908.180" cy="900.228" r="10.992"/>
<circle cx="903.004" cy="919.547" r="11.239"/>
<circle cx="897.827" cy="938.865" r="11.105"/>
<circle cx="892.651" cy="958.184" r="10.832"/>
<circle cx="887.475" cy="977.502" r="10.093"/>
<circle cx="882.298" cy="996.821" r="9.374"/>
<circle cx="877.122" cy="1016.139" r="9.401"/>
<circle cx="871.945" cy="1035.458" r="9.585"/>
<circle cx="866.769" cy="1054.776" r="9.454"/>
<circle cx="861.593" cy="1074.095" r="9.401"/>
<circle cx="856.416" cy="1093.413" r="9.611"/>
<circle cx="851.240" cy="1112.732" r="9.240"/>
<circle cx="846.064" cy="1132.050" r="8.420"/>
<circle cx="840.887" cy="1151.369" r="7.773"/>
<circle cx="835.711" cy="1170.687" r="7.343"/>
<circle cx="830.534" cy="1190.006" r="8.910"/>
<circle cx="825.358" cy="1209.324" r="10.992"/>
<circle cx="820.182" cy="1228.643" r="11.083"/>
<circle cx="815.005" cy="1247.961" r="11.083"/>
<circle cx="809.829" cy="1267.280" r="11.083"/>
<circle cx="804.652" cy="1286.598" r="11.083"/>
<circle cx="799.476" cy="1305.917" r="11.083"/>
<circle cx="794.300" cy="1325.235" r="11.105"/>
<circle cx="789.123" cy="1344.554" r="10.240"/>
<circle cx="1077.614" cy="345.167" r="4.240"/>
<circle cx="1072.437" cy="364.486" r="6.553"/>
<circle cx="1067.261" cy="383.805" r="8.271"/>
<circle cx="1062.085" cy="403.123" r="8.391"/>
<circle cx="1056.908" cy="422.442" r="8.683"/>
<circle cx="1051.732" cy="441.760" r="9.132"/>
<circle cx="1046.555" cy="461.079" r="9.663"/>
<circle cx="1041.379" cy="480.397" r="9.507"/>
<circle cx="1036.203" cy="499.716" r="8.180"/>
<circle cx="1031.026" cy="519.034" r="7.643"/>
<circle cx="1025.850" cy="538.353" r="8.567"/>
<circle cx="1020.673" cy="557.671" r="7.741"/>
<circle cx="1015.497" cy="576.990" r="9.049"/>
<circle cx="1010.321" cy="596.308" r="9.480"/>
<circle cx="1005.144" cy="615.627" r="8.994"/>
<circle cx="999.968" cy="634.945" r="7.445"/>
<circle cx="994.792" cy="654.264" r="9.267"/>
<circle cx="989.615" cy="673.582" r="7.994"/>
<circle cx="984.439" cy="692.901" r="9.159"/>
<circle cx="979.262" cy="712.219" r="8.450"/>
<circle cx="974.086" cy="731.538" r="7.611"/>
<circle cx="968.910" cy="750.856" r="7.773"/>
<circle cx="963.733" cy="770.175" r="9.791"/>
<circle cx="958.557" cy="789.493" r="10.068"/>
<circle cx="953.381" cy="808.812" r="9.321"/>
<circle cx="948.204" cy="828.130" r="10.924"/>
<circle cx="943.028" cy="847.449" r="10.481"/>
<circle cx="937.851" cy="866.767" r="10.763"/>
<circle cx="932.675" cy="886.086" r="10.693"/>
<circle cx="927.499" cy="905.404" r="10.528"/>
<circle cx="922.322" cy="924.723" r="11.239"/>
<circle cx="917.146" cy="944.042" r="11.173"/>
<circle cx="911.969" cy="963.360" r="10.763"/>
<circle cx="906.793" cy="982.679" r="9.321"/>
<circle cx="901.617" cy="1001.997" r="8.654"/>
<circle cx="896.440" cy="1021.316" r="7.611"/>
<circle cx="891.264" cy="1040.634" r="6.741"/>
<circle cx="886.088" cy="1059.953" r="4.844"/>
<circle cx="870.558" cy="1117.908" r="4.059"/>
<circle cx="844.677" cy="1214.501" r="6.814"/>
<circle cx="839.500" cy="1233.819" r="10.646"/>
<circle cx="834.324" cy="1253.138" r="11.083"/>
<circle cx="829.147" cy="1272.456" r="11.083"/>
<circle cx="823.971" cy="1291.775" r="11.060"/>
<circle cx="818.795" cy="1311.093" r="11.083"/>
<circle cx="813.618" cy="1330.412" r="11.083"/>
<circle cx="808.442" cy="1349.730" r="9.817"/>
<circle cx="1086.579" cy="388.981" r="5.697"/>
<circle cx="1081.403" cy="408.299" r="7.206"/>
<circle cx="1076.227" cy="427.618" r="9.454"/>
<circle cx="1071.050" cy="446.936" r="9.867"/>
<circle cx="1065.874" cy="466.255" r="9.993"/>
<circle cx="1060.698" cy="485.573" r="9.993"/>
<circle cx="1055.521" cy="504.892" r="9.321"/>
<circle cx="1050.345" cy="524.211" r="8.509"/>
<circle cx="1045.168" cy="543.529" r="9.374"/>
<circle cx="1039.992" cy="562.848" r="8.769"/>
<circle cx="1034.816" cy="582.166" r="8.596"/>
<circle cx="1029.639" cy="601.485" r="9.401"/>
<circle cx="1024.463" cy="620.803" r="9.663"/>
<circle cx="1019.286" cy="640.122" r="8.596"/>
<circle cx="1014.110" cy="659.440" r="8.026"/>
<circle cx="1008.934" cy="678.759" r="8.241"/>
<circle cx="1003.757" cy="698.077" r="8.420"/>
<circle cx="998.581" cy="717.396" r="9.267"/>
<circle cx="993.405" cy="736.714" r="8.331"/>
<circle cx="988.228" cy="756.033" r="8.994"/>
<circle cx="983.052" cy="775.351" r="9.427"/>
<circle cx="977.875" cy="794.670" r="9.294"/>
<circle cx="972.699" cy="813.988" r="8.769"/>
<circle cx="967.523" cy="833.307" r="10.763"/>
<circle cx="962.346" cy="852.625" r="11.038"/>
<circle cx="957.170" cy="871.944" r="11.083"/>
<circle cx="951.994" cy="891.262" r="10.646"/>
<circle cx="946.817" cy="910.581" r="11.015"/>
<circle cx="941.641" cy="929.899" r="11.083"/>
<circle cx="936.464" cy="949.218" r="11.105"/>
<circle cx="931.288" cy="968.536" r="10.809"/>
<circle cx="926.112" cy="987.855" r="9.663"/>
<circle cx="920.935" cy="1007.173" r="7.136"/>
<circle cx="915.759" cy="1026.492" r="5.335"/>
<circle cx="910.582" cy="1045.810" r="4.525"/>
<circle cx="858.819" cy="1238.996" r="5.564"/>
<circle cx="853.642" cy="1258.314" r="10.264"/>
<circle cx="848.466" cy="1277.633" r="11.038"/>
<circle cx="843.290" cy="1296.951" r="11.060"/>
<circle cx="838.113" cy="1316.270" r="11.060"/>
<circle cx="832.937" cy="1335.588" r="11.083"/>
<circle cx="1100.722" cy="413.476" r="4.896"/>
<circle cx="1095.545" cy="432.794" r="8.740"/>
<circle cx="1090.369" cy="452.113" r="10.289"/>
<circle cx="1085.192" cy="471.431" r="10.457"/>
<circle cx="1080.016" cy="490.750" r="10.215"/>
<circle cx="1074.840" cy="510.068" r="9.993"/>
<circle cx="1069.663" cy="529.387" r="8.994"/>
<circle cx="1064.487" cy="548.705" r="9.454"/>
<circle cx="1059.311" cy="568.024" r="9.213"/>
<circle cx="1054.134" cy="587.342" r="8.391"/>
<circle cx="1048.958" cy="606.661" r="9.294"/>
<circle cx="1043.781" cy="625.979" r="9.842"/>
<circle cx="1038.605" cy="645.298" r="10.191"/>
<circle cx="1033.429" cy="664.617" r="8.740"/>
<circle cx="1028.252" cy="683.935" r="8.180"/>
<circle cx="1023.076" cy="703.254" r="8.966"/>
<circle cx="1017.899" cy="722.572" r="9.689"/>
<circle cx="1012.723" cy="741.891" r="10.117"/>
<circle cx="1007.547" cy="761.209" r="9.943"/>
<circle cx="1002.370" cy="780.528" r="10.117"/>
<circle cx="997.194" cy="799.846" r="9.533"/>
<circle cx="992.018" cy="819.165" r="8.994"/>
<circle cx="986.841" cy="838.483" r="10.809"/>
<circle cx="981.665" cy="857.802" r="10.947"/>
<circle cx="976.488" cy="877.120" r="11.038"/>
<circle cx="971.312" cy="896.439" r="11.083"/>
<circle cx="966.136" cy="915.757" r="11.105"/>
<circle cx="960.959" cy="935.076" r="11.128"/>
<circle cx="955.783" cy="954.394" r="11.038"/>
<circle cx="950.607" cy="973.713" r="10.576"/>
<circle cx="945.430" cy="993.031" r="9.714"/>
<circle cx="940.254" cy="1012.350" r="6.160"/>
<circle cx="872.961" cy="1263.491" r="4.469"/>
<circle cx="867.784" cy="1282.809" r="9.022"/>
<circle cx="862.608" cy="1302.128" r="10.992"/>
<circle cx="857.432" cy="1321.446" r="11.038"/>
<circle cx="852.255" cy="1340.765" r="10.832"/>
<circle cx="1109.687" cy="457.289" r="5.288"/>
<circle cx="1104.511" cy="476.608" r="6.704"/>
<circle cx="1099.335" cy="495.926" r="7.136"/>
<circle cx="1094.158" cy="515.245" r="8.361"/>
<circle cx="1088.982" cy="534.563" r="9.401"/>
<circle cx="1083.805" cy="553.882" r="9.454"/>
<circle cx="1078.629" cy="573.200" r="9.842"/>
<circle cx="1073.453" cy="592.519" r="9.321"/>
<circle cx="1068.276" cy="611.837" r="8.797"/>
<circle cx="1063.100" cy="631.156" r="9.689"/>
<circle cx="1057.924" cy="650.474" r="10.385"/>
<circle cx="1052.747" cy="669.793" r="10.385"/>
<circle cx="1047.571" cy="689.111" r="10.481"/>
<circle cx="1042.394" cy="708.430" r="10.809"/>
<circle cx="1037.218" cy="727.748" r="10.878"/>
<circle cx="1032.042" cy="747.067" r="10.385"/>
<circle cx="1026.865" cy="766.385" r="10.528"/>
<circle cx="1021.689" cy="785.704" r="10.599"/>
<circle cx="1016.512" cy="805.023" r="9.791"/>
<circle cx="1011.336" cy="824.341" r="9.893"/>
<circle cx="1006.160" cy="843.660" r="10.947"/>
<circle cx="1000.983" cy="862.978" r="10.970"/>
<circle cx="995.807" cy="882.297" r="11.083"/>
<circle cx="990.631" cy="901.615" r="11.015"/>
<circle cx="985.454" cy="920.934" r="10.716"/>
<circle cx="980.278" cy="940.252" r="10.693"/>
<circle cx="975.101" cy="959.571" r="10.740"/>
<circle cx="969.925" cy="978.889" r="10.901"/>
<circle cx="964.749" cy="998.208" r="10.117"/>
<circle cx="959.572" cy="1017.526" r="8.241"/>
<circle cx="954.396" cy="1036.845" r="5.144"/>
<circle cx="881.927" cy="1307.304" r="7.741"/>
<circle cx="876.750" cy="1326.622" r="10.809"/>
<circle cx="871.574" cy="1345.941" r="9.943"/>
<circle cx="1123.829" cy="481.784" r="4.469"/>
<circle cx="1118.653" cy="501.103" r="5.428"/>
<circle cx="1113.477" cy="520.421" r="7.708"/>
<circle cx="1108.300" cy="539.740" r="9.022"/>
<circle cx="1103.124" cy="559.058" r="9.132"/>
<circle cx="1097.948" cy="578.377" r="9.611"/>
<circle cx="1092.771" cy="597.695" r="9.267"/>
<circle cx="1087.595" cy="617.014" r="9.663"/>
<circle cx="1082.418" cy="636.332" r="9.533"/>
<circle cx="1077.242" cy="655.651" r="9.918"/>
<circle cx="1072.066" cy="674.969" r="10.264"/>
<circle cx="1066.889" cy="694.288" r="10.599"/>
<circle cx="1061.713" cy="713.606" r="10.786"/>
<circle cx="1056.537" cy="732.925" r="10.763"/>
<circle cx="1051.360" cy="752.243" r="10.043"/>
<circle cx="1046.184" cy="771.562" r="10.409"/>
<circle cx="1041.007" cy="790.880" r="10.457"/>
<circle cx="1035.831" cy="810.199" r="10.433"/>
<circle cx="1030.655" cy="829.517" r="10.992"/>
<circle cx="1025.478" cy="848.836" r="11.105"/>
<circle cx="1020.302" cy="868.154" r="11.150"/>
<circle cx="1015.125" cy="887.473" r="10.599"/>
<circle cx="1009.949" cy="906.791" r="7.206"/>
<circle cx="1004.773" cy="926.110" r="7.578"/>
<circle cx="999.596" cy="945.429" r="7.708"/>
<circle cx="994.420" cy="964.747" r="8.826"/>
<circle cx="989.244" cy="984.066" r="9.943"/>
<circle cx="984.067" cy="1003.384" r="8.910"/>
<circle cx="978.891" cy="1022.703" r="7.837"/>
<circle cx="973.714" cy="1042.021" r="6.079"/>
<circle cx="968.538" cy="1061.340" r="5.240"/>
<circle cx="896.069" cy="1331.799" r="5.697"/>
<circle cx="890.892" cy="1351.117" r="9.049"/>
<circle cx="1143.148" cy="486.960" r="4.059"/>
<circle cx="1137.972" cy="506.279" r="5.144"/>
<circle cx="1132.795" cy="525.598" r="5.335"/>
<circle cx="1127.619" cy="544.916" r="4.740"/>
<circle cx="1122.442" cy="564.235" r="5.046"/>
<circle cx="1117.266" cy="583.553" r="7.545"/>
<circle cx="1112.090" cy="602.872" r="9.689"/>
<circle cx="1106.913" cy="622.190" r="9.766"/>
<circle cx="1101.737" cy="641.509" r="8.654"/>
<circle cx="1096.561" cy="660.827" r="8.712"/>
<circle cx="1091.384" cy="680.146" r="9.401"/>
<circle cx="1086.208" cy="699.464" r="10.481"/>
<circle cx="1081.031" cy="718.783" r="10.240"/>
<circle cx="1075.855" cy="738.101" r="9.663"/>
<circle cx="1070.679" cy="757.420" r="9.611"/>
<circle cx="1065.502" cy="776.738" r="10.763"/>
<circle cx="1060.326" cy="796.057" r="11.038"/>
<circle cx="1055.149" cy="815.375" r="10.924"/>
<circle cx="1049.973" cy="834.694" r="11.060"/>
<circle cx="1044.797" cy="854.012" r="10.924"/>
<circle cx="1039.620" cy="873.331" r="9.817"/>
<circle cx="1034.444" cy="892.649" r="5.144"/>
<circle cx="1029.268" cy="911.968" r="4.120"/>
<circle cx="1024.091" cy="931.286" r="6.666"/>
<circle cx="1018.915" cy="950.605" r="6.438"/>
<circle cx="1013.738" cy="969.923" r="4.120"/>
<circle cx="1003.386" cy="1008.560" r="5.609"/>
<circle cx="998.209" cy="1027.879" r="5.912"/>
<circle cx="993.033" cy="1047.197" r="6.281"/>
<circle cx="987.857" cy="1066.516" r="4.997"/>
<circle cx="982.680" cy="1085.835" r="5.288"/>
<circle cx="977.504" cy="1105.153" r="4.687"/>
<circle cx="1136.585" cy="588.729" r="4.059"/>
<circle cx="1131.408" cy="608.048" r="5.144"/>
<circle cx="1126.232" cy="627.366" r="4.997"/>
<circle cx="1121.055" cy="646.685" r="4.180"/>
<circle cx="1115.879" cy="666.004" r="4.844"/>
<circle cx="1110.703" cy="685.322" r="5.473"/>
<circle cx="1105.526" cy="704.641" r="6.281"/>
<circle cx="1100.350" cy="723.959" r="6.476"/>
<circle cx="1095.174" cy="743.278" r="6.037"/>
<circle cx="1089.997" cy="762.596" r="7.377"/>
<circle cx="1084.821" cy="781.915" r="10.992"/>
<circle cx="1079.644" cy="801.233" r="11.060"/>
<circle cx="1074.468" cy="820.552" r="10.878"/>
<circle cx="1069.292" cy="839.870" r="10.505"/>
<circle cx="1064.115" cy="859.189" r="6.591"/>
<circle cx="996.822" cy="1110.329" r="4.579"/>
<circle cx="991.646" cy="1129.648" r="5.193"/>
<circle cx="934.706" cy="1342.152" r="4.120"/>
<circle cx="1109.316" cy="767.772" r="4.469"/>
<circle cx="1104.139" cy="787.091" r="10.191"/>
<circle cx="1098.963" cy="806.410" r="10.786"/>
<circle cx="1093.787" cy="825.728" r="9.791"/>
<circle cx="1088.610" cy="845.047" r="6.079"/>
<circle cx="1005.788" cy="1154.143" r="4.180"/>
<circle cx="954.024" cy="1347.328" r="5.473"/>
<circle cx="1118.281" cy="811.586" r="4.579"/>
<circle cx="1019.930" cy="1178.638" r="4.356"/>
<circle cx="1014.754" cy="1197.956" r="4.180"/>
<circle cx="1009.577" cy="1217.275" r="4.059"/>
<circle cx="973.343" cy="1352.504" r="5.473"/>
<circle cx="1034.072" cy="1203.133" r="4.525"/>
<circle cx="1017.156" cy="1343.539" r="4.896"/>
<circle cx="1036.475" cy="1348.715" r="7.411"/>
<circle cx="1060.970" cy="1334.573" r="6.037"/>
<circle cx="1055.793" cy="1353.891" r="7.994"/>
<circle cx="1080.288" cy="1339.749" r="6.666"/>
<circle cx="1104.783" cy="1325.607" r="5.428"/>
<circle cx="1099.607" cy="1344.926" r="6.160"/>
<circle cx="1124.102" cy="1330.783" r="5.564"/>
<circle cx="1118.925" cy="1350.102" r="6.160"/>
<circle cx="1148.596" cy="1316.641" r="4.120"/>
<circle cx="1143.420" cy="1335.960" r="5.697"/>
<circle cx="1167.915" cy="1321.818" r="4.896"/>
<circle cx="1162.739" cy="1341.136" r="5.912"/>
<circle cx="1187.233" cy="1326.994" r="6.241"/>
<circle cx="1182.057" cy="1346.313" r="6.741"/>
<circle cx="1206.552" cy="1332.170" r="6.629"/>
<circle cx="1201.376" cy="1351.489" r="7.411"/>
</g></svg>